<svg width="423" height="310" viewBox="0 0 423 310" fill="none" xmlns="http://www.w3.org/2000/svg">
<g clip-path="url(#clip0_53_8400)">
<path d="M422.93 204.989C422.24 198.565 421.282 192.211 420.148 185.822C418.418 176.133 415.578 166.795 413.007 157.387C411.16 150.647 408.764 144.012 406.181 137.447C402.289 127.583 398.022 117.952 393.102 108.591C390.226 103.126 386.346 98.1298 383.903 92.5598C380.677 85.2112 375.429 79.5125 370.59 73.4861C369.234 71.8011 368.638 69.6012 367.013 68.314C362.373 64.628 359.638 59.3271 355.36 55.255C350.205 50.3403 345.659 44.7469 340.048 40.2535C332.322 34.0516 324.059 28.7273 315.444 23.8244C305.451 18.1257 294.99 13.6439 284.178 9.8994C275.342 6.83357 266.108 5.19534 256.968 3.41669C248.587 1.77846 239.985 1.19338 231.452 0.397663C218.864 -0.784203 206.357 0.982746 193.851 1.97739C190.263 2.26993 186.417 2.43375 183.027 3.54541C177.709 5.27725 172.192 5.96765 166.816 7.0793C160.422 8.40159 154.683 11.327 148.453 12.9418C145.555 13.6907 142.902 15.6683 139.734 14.9428C136.718 14.2407 133.551 14.1471 130.629 13.4099C122.669 11.4206 114.663 11.6078 106.609 11.7015C103.383 11.7366 100.508 12.778 97.808 14.3811C93.9976 16.6512 92.3613 22.7244 93.3548 27.0891C94.4067 31.6294 97.2119 34.6367 100.415 37.4451C102.331 39.1184 102.273 40.5343 100.473 41.9034C96.5106 44.9341 93.3781 48.7606 90.3742 52.6338C84.7989 59.8303 79.7496 67.2726 76.547 76.0254C74.7353 80.9635 72.2574 85.609 71.4041 90.8982C71.1937 92.2205 70.4574 93.73 68.9496 94.4672C61.1651 98.2819 53.7664 102.834 45.7716 106.262C40.8742 108.369 35.7431 109.855 30.9509 112.113C25.3288 114.758 19.1924 115.706 13.3833 117.672C8.83657 119.204 5.51709 121.545 2.78203 125.008C1.08722 127.15 -0.479011 130.052 0.128781 132.673C1.44956 138.43 2.16255 144.597 7.92489 148.377C12.2729 151.22 16.4574 154.391 20.408 157.785C22.5353 159.61 24.7561 161.213 27.1522 162.536C30.308 164.267 33.7444 165.555 36.76 167.485C39.1561 169.03 41.6223 169.966 44.369 170.2C45.3859 170.294 46.0989 170.762 46.847 171.265C53.0885 175.372 59.5405 174.682 65.969 171.944C70.7496 169.919 74.5132 166.21 78.9781 163.343C81.1872 167.485 83.1392 171.663 85.547 175.548C90.2924 183.189 95.4353 190.596 101.174 197.524C115.177 214.456 132.008 228.147 150.534 239.802C163.473 247.946 177.172 254.663 191.35 260.256C196.235 262.187 201.133 264.504 206.848 264.211C215.755 263.755 223.434 257.857 225.468 248.964C227.513 240.047 223.153 230.557 215.03 226.918C212.821 225.935 210.764 224.73 208.637 223.642C199.894 219.172 191.899 213.555 183.974 207.821C182.42 206.698 181.274 205.516 182.49 203.55C184.056 200.987 185.459 198.354 186.663 195.593C187.095 194.622 187.866 192.808 189.292 193.252C192.238 194.153 195.137 195.347 197.86 196.786C199.321 197.559 199.04 199.583 199.45 201.057C202.079 210.758 213.686 219.359 223.668 218.844C229.056 218.563 233.848 216.352 238.091 213.204C248.166 205.703 249.931 192.621 246.682 181.843C244.835 175.712 241.574 170.399 236.174 166.175C240.44 164.771 244.496 163.858 247.594 161.202C250.738 158.51 253.543 157.001 258.242 157.41C269.381 158.405 279.129 162.208 288.152 168.433C287.696 169.276 286.983 169.369 286.329 169.603C277.235 172.763 267.85 173.968 258.265 173.629C255.168 173.524 253.625 175.267 253.274 177.865C252.947 180.427 253.847 183.025 256.5 184.043C260.848 185.693 264.787 188.115 269.392 189.403C274.722 190.889 280.029 192.012 285.476 192.445C292.886 193.042 300.215 192.281 307.461 190.573C308.84 190.245 310.243 190.023 311.33 191.743C318.764 203.468 325.438 215.509 330.289 228.615C334.04 238.76 347.669 243.909 357.043 239.486C361.999 237.157 366.522 234.255 368.416 228.662C369.807 224.543 371.361 220.365 370.087 215.965C368.451 210.302 366.534 204.685 364.512 199.162C360.327 187.741 355.617 176.507 349.983 165.695C349.107 164.01 348.324 162.922 350.346 161.05C352.999 158.616 354.577 155.164 355.886 151.7C356.611 149.816 358.06 148.33 359.404 146.961C362.011 154.263 365.505 160.745 368.895 167.287C370.181 169.779 372.144 172.365 372.215 174.951C372.343 179.807 375.569 183.353 376.434 187.776C377.159 191.509 379.648 194.61 380.139 198.401C380.957 204.697 383.131 210.477 387.339 215.228C397.146 226.239 411.733 221.418 418.757 213.485C420.616 211.402 420.031 207.844 422.895 206.241C423.082 206.136 422.965 205.41 422.93 204.989ZM99.8418 28.4816C99.0937 27.6157 98.5561 26.5508 98.6963 25.3105C98.7431 19.916 100.356 18.2661 105.674 17.7278C114.557 16.8385 123.277 18.3246 132.078 19.0735C140.248 19.7639 147.682 22.701 155.128 25.2988C159.873 26.9487 164.326 30.2135 168.931 32.6708C172.964 34.8239 176.552 37.2227 179.264 40.8971C180.842 41.0843 180.55 42.3364 180.666 43.3661C180.877 43.6352 181.087 43.9161 181.286 44.1969C183.74 49.4627 182.595 55.056 182.794 60.5207C182.864 62.2526 182.303 63.0951 180.398 62.9078C172.847 62.1472 165.238 61.9015 157.687 61.293C150.031 60.6728 142.527 61.0122 135 61.9015C131.821 62.2643 128.548 62.2057 125.463 63.3525C124.2 63.8206 124.037 62.744 123.639 61.8898C121.407 57.1272 120.063 52.0019 117.176 47.4851C115.598 45.016 113.798 42.9331 111.589 41.1428C107.077 37.4685 103.629 32.8229 99.8418 28.4816ZM81.0236 77.8391C84.9626 69.6129 89.6496 61.7377 95.5872 54.7518C98.369 51.487 101.572 48.585 104.54 45.4841C105.885 44.0799 106.843 43.9044 108.503 45.4256C111.857 48.4914 113.634 52.4583 115.224 56.4368C115.995 58.3793 116.883 60.3569 117.538 62.4047C118.333 64.8854 118.473 66.0556 115.399 66.9449C108.9 68.8172 103.29 72.5383 97.5392 76.0722C91.0171 80.0742 84.8924 84.5793 77.9496 89.1078C77.7275 84.6846 79.469 81.1039 81.0236 77.8391ZM180.269 195.452C179.907 196.026 179.731 196.716 179.392 197.313C176.692 202.04 176.646 202.076 173.057 197.711C172.076 196.529 170.93 196.201 169.726 196.786C168.429 197.43 167.657 198.588 168.3 200.215C168.546 200.847 168.709 201.514 168.908 202.169C174.331 207.435 179.895 212.537 186.312 216.621C193.173 220.974 199.695 225.771 207.211 229.177C210.215 230.534 214.282 231.318 216.105 234.945C217.625 236.034 218.443 237.637 219.156 239.263C219.577 240.211 221.108 241.229 219.986 242.189C218.829 243.183 217.777 241.826 216.83 241.1H214.75C213.476 241.1 212.003 240.937 211.383 242.306C210.717 243.768 211.734 244.892 212.728 245.91C215.615 246.869 217.882 248.285 217.531 251.913C217.415 253.223 216.725 254.183 215.72 254.651C214.539 255.201 214.259 253.82 213.803 253.153C212.424 251.187 210.308 250.228 208.45 248.929C207.105 248.718 205.75 248.484 204.394 248.835C202.103 251.784 202.29 252.978 205.492 254.23C207.281 254.92 209.911 256.161 209.303 257.495C208.543 259.144 205.656 259.449 203.564 258.723C198.643 257.003 193.828 255.002 188.93 253.235C179.194 249.736 170.299 244.435 161.17 239.731C153.783 235.928 147.285 230.452 140.237 225.97C134.229 222.144 128.735 217.58 123.487 212.923C119.525 209.412 115.434 205.773 112.091 201.479C110.069 198.881 107.404 196.81 105.16 194.376C102.624 191.638 100.765 188.349 98.5561 185.377C93.5885 178.696 89.708 171.218 85.2431 164.15C82.9171 160.476 84.4366 158.428 89.4976 155.058C93.3898 177.713 107.077 191.392 128.525 197.898C131.552 198.167 134.568 198.436 137.595 198.705C138.32 197.652 138.998 197.652 139.652 198.776H141.779C142.434 197.641 143.124 197.652 143.837 198.705C144.304 198.694 144.76 198.67 145.227 198.659C145.461 197.851 146.046 197.98 146.642 198.12C150.23 198.471 153.491 196.552 157.044 196.634C162.748 193.966 168.592 191.556 173.513 187.472C174.881 186.325 176.517 186.7 177.686 187.636C179.369 188.993 182.595 187.811 183.074 190.105C183.472 191.977 181.344 193.697 180.269 195.452ZM97.3989 159.657C98.7431 158.967 99.1755 160.991 99.8184 161.939C110.198 177.256 125.24 183.458 143.1 183.985C149.459 184.172 155.817 184.043 162.164 184.09C163.496 184.09 164.817 184.219 166.185 184.652C160.142 189.297 153.327 191.649 145.882 192.375C140.95 194.036 136.029 193.1 131.202 191.954C129.413 191.532 127.391 191.567 125.79 190.362C112.079 185.834 102.752 176.73 97.7028 163.249C97.2937 162.149 95.7158 160.511 97.3989 159.657ZM236.782 175.092C240.289 178.778 241.037 183.435 241.995 188.221C243.117 193.767 241.212 198.6 239.879 203.644C239.248 206.066 236.747 206.815 235.146 208.336C229.348 213.812 221.716 215.24 214.668 210.641C210.413 208.664 207.795 205.2 205.434 200.73C208.987 201.28 211.29 203.234 213.604 204.931C215.568 206.382 216.994 206.522 218.431 204.486C220.056 202.181 217.929 201.572 216.666 200.578C216.059 200.086 215.24 199.794 214.983 198.46C218.946 197.933 222.113 195.675 225.246 193.346C230.342 188.56 230.739 182.089 231.522 175.77C231.674 174.179 230.482 171.838 232.142 171.171C233.72 170.54 234.795 172.88 236.046 173.968C236.373 174.249 236.537 174.717 236.782 175.092ZM241.89 150.073C241.481 157.317 236.466 161.681 228.296 161.834C221.447 161.951 214.668 161.658 207.994 159.786C199.695 157.469 191.63 154.813 185.213 148.669C183.951 147.452 183.051 146.317 184.36 144.691C185.003 143.895 184.956 143.298 184.29 142.596C183.507 141.777 182.431 141.215 181.496 141.718C178.703 143.228 175.535 144.152 173.548 146.949C171.982 149.137 172.426 150.998 175.126 151.302C178.083 151.63 178.913 153.174 179.895 155.772C182.209 161.869 186.265 167.006 190.578 171.85C193.395 175.021 196.446 177.97 199.976 180.427C202.395 182.124 205.177 182.99 207.807 184.09C212.821 186.196 216.678 184.043 220.255 177.806C220.57 174.354 220.15 170.996 218.946 167.719C225.363 166.865 225.818 167.24 225.842 173.383C225.842 176.016 225.666 178.602 225.246 181.235C224.053 188.584 219.051 192.305 212.166 193.112C207.433 193.674 202.909 192.609 198.456 190.982C189.865 187.823 182.268 182.358 173.221 180.217C171.246 179.749 169.06 180.544 167.307 179.105C166.442 179.14 165.495 179.632 164.817 178.672C161.486 178.075 158.166 178.286 154.847 178.707H154.835C151.89 179.503 148.979 179.62 146.057 178.637C141.102 178.087 136.111 178.403 131.131 177.268C123.581 175.548 117.199 171.874 111.402 167.006C107.65 163.846 104.634 159.985 102.425 155.55C102.238 155.257 102.051 154.965 101.852 154.684C97.7262 149.161 98.2522 144.246 102.46 138.617C107.509 131.866 109.274 123.745 108.479 115.226C108.351 113.845 108.117 112.476 107.825 111.119C107.533 109.796 106.855 108.743 105.277 108.743C103.64 108.731 102.705 109.726 102.285 111.142C102.039 112.008 101.957 112.991 102.074 113.88C103.711 126.892 97.8781 137.026 89.4976 146.048C82.4145 153.666 74.6768 160.652 65.782 166.081C61.434 168.738 56.6535 169.264 51.2885 167.485C35.6028 162.29 21.9275 153.97 9.95865 142.713C5.22489 138.255 4.13787 132.802 7.32878 127.407C8.83657 124.845 11.9807 123.756 14.9028 122.926C18.5145 121.884 22.1379 120.878 25.7613 119.86C33.9314 116.607 42.2535 113.74 50.3301 110.206C56.0924 107.678 61.7496 104.928 67.1846 101.898C77.6574 96.0469 88.0249 89.9621 97.434 82.3677C99.9703 80.3199 103.5 79.5125 106.095 77.5232C114.125 71.3564 123.92 70.5022 133.165 68.0215C134.579 67.6353 136.157 67.9396 137.665 67.9279C138.261 67.2843 138.904 66.7694 139.863 67.2141C147.811 66.3481 155.677 67.0853 163.625 67.7991C170.556 68.4193 177.522 68.6768 184.383 70.0693C190.076 71.216 195.37 73.3808 200.396 76.2711C207.468 80.2497 211.196 87.0834 215.205 93.6832C215.907 94.8299 214.995 95.5905 214.434 96.4448C212.692 99.101 212.365 102.015 212.891 105.092C213.312 107.62 214.761 108.497 217.274 108.299C219.963 108.088 219.518 106.227 219.635 104.531C219.694 103.559 219.086 102.237 220.161 101.687C221.272 101.125 221.938 102.448 222.791 102.939C224.381 103.875 225.924 104.893 227.478 105.865C234.865 109.972 243.222 111.914 251.404 116.302C244.204 117.063 238.173 118.807 232.282 121.358C225.83 124.166 224.837 127.267 229.337 132.603C233.182 134.475 236.291 137.857 240.873 138.255C241.212 138.278 241.761 138.758 241.785 139.074C242.1 142.736 243.608 146.399 241.89 150.073ZM213.908 177.678C212.213 179.796 210.226 179.445 207.807 178.169C202.103 175.162 197.112 171.382 193.056 166.374C192.425 165.601 191.513 164.97 191.548 163.624C199.637 163.741 206.766 166.222 212.833 171.604C214.808 173.36 215.685 175.466 213.908 177.678ZM255.752 141.484C254.35 144.702 253.333 148.119 250.855 150.799C250.002 151.723 249.417 153.315 247.968 152.683C246.495 152.028 248.447 151.01 248.166 150.015C247.991 149.383 248.202 148.646 248.237 147.955C247.792 144.784 248.587 141.52 247.465 138.383C247.243 137.763 247.079 136.792 247.933 136.184C252.246 133.094 253.683 128.683 253.73 123.604C253.73 123.359 254.092 123.113 254.291 122.855C254.864 121.919 253.298 121.299 254.233 119.825C257.669 122.329 258.137 126.003 258.557 129.607C259.06 133.867 257.4 137.693 255.752 141.484ZM353.841 186.746C356.763 191.638 357.826 197.184 359.965 202.298C362.221 207.716 364.535 213.543 364.874 219.698C365.482 230.464 352.356 238.222 343.835 234.7C339.464 232.898 336.682 229.165 334.94 224.765C331.75 216.667 328.22 208.757 323.626 201.315C320.938 196.962 318.869 192.223 315.328 188.104C325.999 183.868 335.233 177.958 343.087 169.966C344.35 168.667 344.841 168.433 345.951 170.306C349.06 175.583 350.731 181.563 353.841 186.746ZM411.394 212.864C406.263 217.381 395.451 217.311 390.787 211.8C387.994 208.5 386.825 204.662 385.902 200.73C384.008 192.574 380.373 185.003 378.14 176.987C376.621 171.558 374.19 166.491 371.677 161.588C368.918 156.182 367.715 150.085 363.846 145.159C361.987 142.795 361.169 139.916 362.279 136.418C364.874 128.273 366.452 119.836 366.417 111.247C366.394 103.583 365.272 96.0352 363.086 88.6749C362.876 87.9728 362.794 87.3526 362.946 86.6739C362.221 84.4389 361.508 82.2156 360.795 79.9805C359.989 79.7231 359.346 79.3955 359.322 78.354C359.241 75.5807 357.896 73.0883 355.068 73.767C351.468 74.6212 352.917 78.3657 353.805 80.0274C355.968 84.0995 356.973 88.5345 358.796 92.6534C359.837 94.9938 359.837 97.4628 359.883 99.5457C360.105 109.059 361.403 118.83 358.948 128.039C356.541 137.049 353.572 146.013 348.394 154.146C342.959 162.688 335.618 169.03 327.799 175.056C319.699 181.094 310.757 184.921 300.647 186.196C289.999 187.53 279.515 187.156 269.24 183.985C266.576 183.166 263.934 182.031 261.818 180.03C261.596 179.959 261.363 179.889 261.14 179.819C260.615 179.889 260.147 179.667 260.264 179.14C260.392 178.567 260.895 178.707 261.281 179.012C262.999 178.988 264.705 178.976 266.412 178.953C266.739 177.642 267.3 177.549 268.095 178.614C274.886 178.309 281.361 176.671 287.907 174.822C296.065 172.505 302.868 168.059 309.67 163.425C312.3 161.635 314.778 159.61 317.315 157.703H317.326C317.759 157.27 318.179 156.825 318.589 156.381C319.418 155.491 320.225 154.59 320.996 153.654C326.011 147.628 329.833 140.794 332.883 133.551C337.196 123.288 338.272 112.558 336.215 101.523C335.396 97.1235 335.338 92.5949 333.047 88.5345C331.96 86.6271 330.592 85.1761 328.418 86.2643C326.385 87.2941 327.366 89.1897 327.892 90.8514C328.605 93.1332 329.225 95.4501 329.879 97.7436C332.603 108.849 331.843 119.754 328.056 130.485C327.32 132.579 326.548 134.674 325.8 136.757C323.486 140.665 321.733 145.088 318.705 148.318C315.889 151.314 313.153 154.567 309.589 156.931C305.439 159.669 301.442 162.653 297.14 165.169C295.609 166.07 294.511 165.976 292.898 164.782C283.196 157.562 272.431 152.882 260.205 152.121C257.424 151.946 258.043 150.881 258.838 149.02C261.596 142.526 264.647 136.137 264.133 128.683C263.548 120.129 257.178 111.236 249.394 108.837C244.882 107.444 240.312 105.9 236.303 103.208C229.185 100.763 223.434 96.866 219.74 89.9035C213.429 78.003 204.102 69.3321 190.929 65.3769C189.316 64.8854 188.743 63.961 188.79 62.3345C188.872 59.9122 188.72 57.4666 188.825 55.0443C189.304 44.349 184.886 36.2164 176.272 30.0262C172.321 27.1944 167.879 25.486 163.625 23.3329C162.246 22.6191 160.422 22.5606 159.698 20.817C157.325 19.8692 154.403 20.1032 152.17 16.9672C198.737 2.73799 244.648 1.05296 290.431 18.6405C298.976 21.6947 307.122 25.5679 314.942 30.1666C315.292 30.3656 315.643 30.5645 315.994 30.7517C316.344 30.9273 316.695 31.1145 317.046 31.3017C317.139 31.2783 317.221 31.2666 317.303 31.2549C318.857 31.0677 319.29 32.6825 320.33 33.3027C326.163 36.7313 331.224 41.2481 336.857 44.9107C340.808 47.4734 343.216 51.4285 346.968 54.1316C351.725 57.5485 355.348 62.3345 359.217 66.629C362.466 70.2331 365.564 74.3287 368.264 78.5412C371.011 79.6646 371.303 82.6719 372.682 84.7431C376.761 90.8748 380.852 97.0416 384.639 103.325C386.65 106.649 389.081 110.065 390.203 114.161C391.266 118.034 393.534 121.627 395.416 125.231C397.824 129.865 399.285 134.814 401.272 139.565C404.381 146.996 406.964 154.625 408.729 162.512C411.125 169.393 412.902 176.402 414.409 183.552C415.66 189.438 416.689 195.242 417.156 201.256C417.577 206.639 414.807 209.857 411.394 212.864Z" fill="#7C3C2F"/>
<path d="M222.791 102.939C221.938 102.448 221.272 101.126 220.161 101.687C219.086 102.237 219.694 103.56 219.636 104.531C219.519 106.228 219.963 108.088 217.274 108.299C214.761 108.498 213.312 107.62 212.891 105.092C212.365 102.015 212.693 99.1013 214.434 96.445C214.995 95.5908 215.907 94.8302 215.206 93.6834C211.197 87.0837 207.468 80.2499 200.397 76.2713C198.749 77.2894 197.206 76.3299 195.721 75.8969C178.154 70.678 160.387 69.2387 142.037 70.9471C123.3 72.6906 107.463 80.5776 92.5017 90.9569C75.5537 102.705 57.7758 112.687 37.7069 118.058C33.803 119.099 29.8875 120.234 25.7615 119.86C22.1381 120.878 18.5147 121.884 14.903 122.926C11.981 123.757 8.83681 124.845 7.32902 127.408C4.13811 132.802 5.22512 138.255 9.95889 142.713C21.9277 153.97 35.603 162.29 51.2888 167.486C56.6537 169.264 61.4342 168.738 65.7823 166.081C74.6771 160.652 82.4147 153.666 89.4978 146.048C97.8784 137.026 103.711 126.893 102.074 113.88C101.958 112.991 102.039 112.008 102.285 111.142C102.706 109.726 103.641 108.732 105.277 108.743C106.855 108.743 107.533 109.797 107.825 111.119C108.117 112.476 108.351 113.845 108.48 115.226C109.274 123.745 107.51 131.866 102.46 138.618C98.2524 144.246 97.7264 149.161 101.852 154.684C102.051 154.965 102.238 155.257 102.425 155.55C103.068 150.425 104.213 145.533 107.755 141.45C109.45 139.484 111.261 137.951 113.786 137.366C114.885 133.668 118.38 133.41 121.173 132.673C130.454 130.228 139.769 131.468 149.202 132.322C160.563 133.352 172.029 133.212 182.852 128.402C191.806 124.412 194.587 117.625 192.191 108.17C189.924 99.1715 183.729 93.5664 177.16 88.0432C175.571 86.6975 173.887 85.4571 172.251 84.17C170.755 82.9998 170.416 81.3967 171.293 79.8638C172.169 78.3074 173.689 77.032 175.606 77.6872C185.365 80.9988 194.424 85.422 200.665 94.1398C203.132 97.58 203.178 101.945 205.165 105.561C205.282 105.759 205.352 105.982 205.458 106.192C207.62 110.405 210.25 114.512 215.521 114.419C221.167 114.313 225.269 111.212 227.478 105.865C225.924 104.894 224.381 103.876 222.791 102.939ZM181.485 114.606C182.829 116.619 182.887 118.631 180.772 120.094C178.773 121.463 177.02 120.679 175.711 118.819C173.63 115.846 171.211 113.892 167.213 113.717C162.024 113.494 158.961 115.998 156.647 120.117C156.308 120.726 156.004 121.358 155.771 122.013C154.976 124.213 153.129 125.278 151.2 124.646C148.98 123.932 148.384 121.884 149.085 119.486C151.317 111.915 158.88 106.169 168.476 106.157C173.221 106.298 178.002 109.34 181.485 114.606Z" fill="#F5AC3F"/>
<path d="M317.057 31.3019C318.822 30.8806 319.243 32.6476 320.341 33.2912C326.174 36.7198 331.235 41.2483 336.869 44.8992C340.819 47.4619 343.227 51.4287 346.979 54.1201C351.736 57.537 355.359 62.3229 359.228 66.6175C362.478 70.2216 365.575 74.3171 368.275 78.5297C365.785 79.0095 363.296 79.4893 360.806 79.969C360 79.7116 359.357 79.3839 359.333 78.3425C359.252 75.5692 357.919 73.0768 355.079 73.7438C351.479 74.598 352.928 78.3425 353.817 80.0041C355.991 84.0763 356.984 88.5229 358.808 92.6419C359.848 94.9822 359.848 97.4513 359.895 99.5342C360.117 109.036 361.414 118.807 358.959 128.016C356.552 137.038 353.583 146.001 348.405 154.134C342.97 162.665 335.63 169.019 327.81 175.045C326.676 171.488 326.361 167.638 323.894 164.584C322.48 161.541 319.839 159.681 317.337 157.68C324.233 150.741 329.143 142.444 332.894 133.527C337.219 123.265 338.283 112.535 336.226 101.5C335.407 97.1002 335.349 92.5717 333.058 88.5229C331.971 86.6039 330.604 85.1646 328.43 86.2528C326.384 87.2826 327.366 89.1782 327.892 90.8282C328.617 93.11 329.224 95.4269 329.879 97.7204C328.897 97.7789 328.196 98.3172 327.459 98.9257C322.34 103.103 317.606 107.714 313.106 112.535C305.556 120.609 291.284 125.594 278.941 119.017C268.293 113.342 262.215 104.695 262.075 92.4898C261.97 83.3742 264.892 74.9139 268.866 66.8047C275.82 52.6457 286.469 42.395 300.985 36.1347C306.175 33.8997 311.633 32.7061 317.057 31.3019Z" fill="#F5AC3F"/>
<path d="M113.798 137.354C114.885 133.656 118.391 133.399 121.185 132.662C130.465 130.216 139.781 131.456 149.213 132.311C160.574 133.34 172.052 133.2 182.876 128.39C191.817 124.412 194.611 117.625 192.215 108.158C189.947 99.1598 183.752 93.5547 177.184 88.0315C175.594 86.6858 173.911 85.4571 172.274 84.17C170.778 82.9998 170.439 81.3967 171.316 79.8638C172.193 78.3074 173.712 77.032 175.641 77.6872C185.4 80.9988 194.459 85.422 200.7 94.1398C203.167 97.58 203.213 101.945 205.2 105.561C205.317 105.759 205.387 105.982 205.493 106.192C207.655 110.417 210.285 114.524 215.556 114.419C221.19 114.313 225.304 111.212 227.513 105.877C234.9 109.984 243.258 111.926 251.439 116.303C244.228 117.063 238.197 118.807 232.317 121.369C225.865 124.178 224.872 127.267 229.372 132.615C229.255 133.949 229.886 135.06 230.459 136.184C233.241 141.672 236.689 146.61 241.913 150.074C241.504 157.317 236.49 161.682 228.32 161.834C221.471 161.951 214.703 161.658 208.017 159.786C199.719 157.469 191.665 154.825 185.249 148.669C183.986 147.464 183.086 146.317 184.384 144.703C185.026 143.895 184.98 143.31 184.313 142.608C183.53 141.777 182.467 141.227 181.532 141.73C178.738 143.228 175.571 144.164 173.584 146.949C172.017 149.138 172.461 150.998 175.161 151.302C178.119 151.63 178.949 153.186 179.93 155.772C182.245 161.869 186.3 167.018 190.613 171.85C193.43 175.01 196.481 177.959 199.999 180.428C202.43 182.124 205.2 182.99 207.83 184.09C212.856 186.197 216.702 184.044 220.278 177.807C222.663 179.632 223.119 182.089 221.33 184.605C219.425 187.273 216.854 188.841 213.452 188.993C203.95 189.391 195.978 185.108 188.124 180.638C182.876 177.643 177.464 175.185 171.667 173.489C163.239 171.031 154.578 169.381 146.408 166.046C141.265 163.952 136.298 161.53 131.424 158.85C122.646 154.029 117.351 146.434 113.81 137.366L113.798 137.354Z" fill="#FFFEFE"/>
<path d="M236.302 103.209C229.184 100.763 223.434 96.8662 219.74 89.9038C213.428 78.0032 204.101 69.3323 190.928 65.3771C189.315 64.8856 188.743 63.9612 188.789 62.3347C188.871 59.9007 188.719 57.4668 188.825 55.0446C189.292 44.3493 184.874 36.2166 176.271 30.0381C172.332 27.2063 167.879 25.4979 163.625 23.3331C162.245 22.631 160.422 22.5725 159.697 20.8173C178.118 14.826 197.24 13.2814 216.374 12.3102C236.197 11.3038 255.857 13.3867 275.236 17.7748C278.112 18.4301 281.186 18.6993 283.664 20.63C277.27 22.8416 271.426 26.0362 266.295 30.4711C257.54 38.0187 251.602 47.4034 247.663 58.2625C244.005 68.361 242.334 78.7872 241.27 89.3772C239.47 93.9408 238.909 98.9491 236.279 103.209H236.302Z" fill="#F5AC3F"/>
<path d="M241.294 89.3655C242.346 78.7755 244.029 68.3376 247.687 58.2508C251.626 47.3917 257.564 38.007 266.319 30.4594C271.45 26.0362 277.294 22.8416 283.687 20.6183C285.943 19.9513 288.187 19.296 290.443 18.629C298.987 21.6715 307.146 25.5564 314.954 30.1551C315.643 30.5647 316.356 30.9158 317.058 31.2902C311.646 32.6944 306.176 33.888 300.986 36.1347C286.469 42.3951 275.821 52.6457 268.867 66.8047C264.893 74.9139 261.971 83.3742 262.076 92.4898C262.216 104.706 268.294 113.342 278.942 119.017C291.285 125.594 305.556 120.609 313.107 112.535C317.619 107.714 322.341 103.103 327.46 98.9257C328.197 98.3289 328.91 97.779 329.88 97.7204C332.603 108.825 331.843 119.72 328.056 130.462C327.32 132.556 326.548 134.639 325.8 136.734C321.534 137.763 317.303 138.98 313.002 139.788C302.541 141.765 292.863 140.057 284.12 133.586C277.656 128.8 273.25 122.27 268.598 115.963C262.672 107.913 255.951 100.587 248.541 93.9291C246.46 92.0568 244.251 90.0208 241.294 89.3538V89.3655Z" fill="#FFFEFE"/>
<path d="M417.156 201.257C416.689 195.242 415.66 189.438 414.409 183.552C412.902 176.402 411.125 169.393 408.729 162.512C402.569 162.969 398.607 159.084 394.972 155.07C386.463 145.639 381.553 134.159 377.159 122.446C373.056 111.528 369.596 100.377 365.05 89.6112C364.57 88.4644 364.43 87.0836 362.946 86.6741C362.794 87.3528 362.876 87.973 363.086 88.6751C365.272 96.0354 366.394 103.583 366.417 111.248C366.452 119.837 364.874 128.273 362.279 136.418C361.169 139.917 361.987 142.795 363.846 145.159C367.715 150.085 368.918 156.182 371.677 161.588C374.19 166.491 376.621 171.558 378.14 176.987C380.373 185.003 384.008 192.574 385.902 200.73C386.825 204.662 387.994 208.5 390.787 211.8C395.451 217.311 406.263 217.381 411.394 212.865C414.807 209.857 417.577 206.639 417.156 201.257ZM396.269 209.939C394.165 209.775 394.118 207.903 394.083 206.312C394.048 204.638 394.761 203.164 396.585 203.211C398.712 203.269 399.366 204.954 399.483 206.253C399.565 209.073 398.221 210.091 396.269 209.939ZM405.07 208.371C402.791 208.313 401.961 206.604 401.868 204.638C401.786 203.012 402.441 201.526 404.357 201.643C406.438 201.76 407.256 203.211 407.244 205.188C407.233 206.745 407.198 208.418 405.07 208.371ZM399.53 200.742C395.007 200.765 391.886 197.945 391.863 194.025C391.863 190.514 396.082 185.424 401.541 186.22C406.683 186.22 408.659 187.952 408.647 192.434C408.635 197.114 404.685 200.718 399.53 200.742ZM412.072 204.732C409.979 204.673 409.126 202.766 408.834 200.906C408.577 199.326 409.395 198.062 411.078 198.062C413.439 198.062 414.456 199.7 414.818 201.526C414.935 203.784 413.486 204.779 412.072 204.732Z" fill="#E3DDE3"/>
<path d="M181.297 44.1854C183.74 49.4512 182.607 55.0446 182.805 60.5209C182.875 62.2528 182.303 63.0953 180.409 62.9081C172.847 62.1475 165.249 61.9017 157.687 61.2932C150.043 60.6731 142.527 61.0124 135 61.9017C131.821 62.2762 128.548 62.206 125.462 63.3527C124.188 63.8208 124.036 62.7559 123.627 61.89C121.395 57.1275 120.051 52.0021 117.175 47.4853C115.597 45.0163 113.797 42.9334 111.588 41.143C107.077 37.4687 103.629 32.8348 99.8416 28.4935C99.0935 27.6276 98.5559 26.5628 98.6961 25.3107C111.086 21.5896 123.581 21.8236 136.029 24.7022C150.09 27.9553 163.882 32.004 175.781 40.7334C176.739 41.4355 178.013 42.8397 179.252 40.909C180.83 41.0962 180.538 42.3483 180.655 43.378C180.865 43.6589 181.064 43.928 181.274 44.2088L181.297 44.1854Z" fill="#F5AC3F"/>
<path d="M143.848 198.694C144.304 198.682 144.771 198.659 145.227 198.647C146.092 199.49 146.384 198.846 146.641 198.109C150.23 198.46 153.502 196.541 157.044 196.623C160.457 199.618 164.676 200.917 168.908 202.158C174.331 207.423 179.895 212.525 186.311 216.609C193.172 220.974 199.695 225.772 207.21 229.177C210.202 230.534 214.282 231.318 216.093 234.934C216.409 236.982 217.098 238.971 216.818 241.089C216.128 241.089 215.439 241.089 214.737 241.089C213.463 241.089 211.991 240.937 211.371 242.294C210.705 243.757 211.722 244.892 212.704 245.898C211.278 246.905 209.852 247.911 208.426 248.917C207.082 248.707 205.737 248.473 204.382 248.824C201.144 248.508 198.035 247.7 194.996 246.565C183.541 242.294 173.478 235.507 163.262 229.013C153.795 222.987 145.227 215.79 137.045 208.149C133.784 205.106 130.371 202.123 128.524 197.887C131.552 198.156 134.567 198.425 137.595 198.694C138.261 199.466 138.939 199.548 139.652 198.764C140.365 198.764 141.078 198.764 141.779 198.764C142.492 199.548 143.17 199.455 143.836 198.694H143.848Z" fill="#FFFEFE"/>
<path d="M241.294 89.3655C244.239 90.0325 246.448 92.0686 248.54 93.9408C255.951 100.611 262.66 107.924 268.598 115.975C273.249 122.294 277.656 128.812 284.12 133.598C292.862 140.069 302.552 141.777 313.001 139.8C317.303 138.992 321.534 137.775 325.8 136.745C323.486 140.654 321.733 145.077 318.705 148.307C315.9 151.302 313.153 154.555 309.588 156.919C305.439 159.669 301.442 162.641 297.14 165.157C295.609 166.058 294.511 165.964 292.898 164.771C283.196 157.551 272.431 152.87 260.205 152.11C257.424 151.934 258.043 150.869 258.838 149.009C261.596 142.514 264.659 136.125 264.133 128.683C263.536 120.129 257.166 111.236 249.394 108.837C244.882 107.445 240.312 105.9 236.303 103.209C238.933 98.9491 239.494 93.9408 241.294 89.3772V89.3655Z" fill="#E3DDE3"/>
<path d="M364.874 219.698C364.535 213.543 362.221 207.716 359.965 202.298C357.826 197.184 356.762 191.638 353.84 186.747C350.731 181.563 349.06 175.583 345.951 170.306C344.84 168.433 344.349 168.667 343.087 169.966C335.232 177.959 325.999 183.868 315.327 188.104C318.869 192.223 320.938 196.962 323.626 201.315C328.219 208.757 331.749 216.668 334.94 224.765C336.682 229.165 339.464 232.898 343.835 234.7C352.356 238.222 365.482 230.464 364.874 219.698ZM343.508 229.727C341.497 229.551 340.702 227.89 340.749 225.994C340.784 224.344 341.427 223.115 343.391 223.104C345.764 223.08 346.138 224.707 346.313 226.52C346.138 228.276 345.53 229.902 343.508 229.727ZM346.208 220.272C341.86 220.248 338.622 217.545 338.564 213.906C338.493 209.389 342.841 205.703 348.265 205.703C352.367 205.095 355.465 207.692 355.71 211.917C355.979 216.457 351.386 220.307 346.208 220.272ZM351.947 228.475C349.714 228.182 348.58 226.263 348.3 224.18C348.043 222.226 349.445 221.114 351.234 221.184C353.665 221.278 353.641 223.56 354.273 225.28C353.361 226.263 354.156 228.755 351.947 228.475ZM361.356 221.617C361.297 223.583 360.502 224.438 358.749 224.215C356.236 223.888 355.278 222.109 355.289 219.909C355.301 218.435 356.33 217.323 358.013 217.592C360.397 217.967 361.625 219.382 361.356 221.617Z" fill="#E3DDE3"/>
<path d="M113.798 137.354C117.339 146.423 122.646 154.017 131.412 158.838C136.286 161.518 141.253 163.928 146.396 166.035C154.566 169.37 163.227 171.02 171.655 173.477C177.452 175.174 182.864 177.631 188.112 180.627C195.955 185.097 203.938 189.379 213.44 188.982C216.842 188.841 219.413 187.261 221.318 184.593C223.107 182.089 222.651 179.62 220.266 177.795C220.582 174.343 220.161 170.973 218.957 167.708C225.374 166.854 225.83 167.24 225.842 173.372C225.842 176.004 225.678 178.602 225.246 181.235C224.053 188.572 219.051 192.293 212.166 193.112C207.433 193.674 202.909 192.609 198.456 190.983C189.865 187.823 182.268 182.37 173.221 180.229C171.246 179.761 169.06 180.545 167.295 179.117C166.711 177.631 165.846 177.666 164.817 178.672C161.486 178.076 158.166 178.286 154.835 178.707C151.925 177.444 148.991 177.537 146.057 178.637C141.101 178.087 136.111 178.415 131.131 177.28C123.581 175.56 117.187 171.885 111.401 167.018C107.638 163.858 104.634 159.997 102.425 155.562C103.068 150.436 104.213 145.557 107.743 141.461C109.438 139.495 111.249 137.962 113.786 137.377L113.798 137.354Z" fill="#E3DDE3"/>
<path d="M128.524 197.887C130.383 202.123 133.796 205.106 137.045 208.149C145.227 215.79 153.794 222.998 163.262 229.013C173.477 235.507 183.553 242.294 194.996 246.565C198.035 247.7 201.144 248.508 204.381 248.824C202.09 251.773 202.277 252.966 205.48 254.218C207.268 254.909 209.898 256.149 209.29 257.483C208.531 259.133 205.632 259.437 203.552 258.712C198.642 256.992 193.815 254.991 188.918 253.224C179.181 249.725 170.287 244.424 161.158 239.72C153.783 235.917 147.272 230.44 140.224 225.959C134.216 222.132 128.723 217.569 123.475 212.911C119.524 209.401 115.422 205.75 112.079 201.456C110.057 198.869 107.392 196.787 105.148 194.353C102.611 191.614 100.753 188.326 98.5437 185.354C93.5762 178.672 89.6957 171.183 85.2307 164.116C82.9048 160.441 84.4242 158.393 89.4853 155.023C93.3775 177.678 107.064 191.357 128.513 197.863L128.524 197.887Z" fill="#E3DDE3"/>
<path d="M408.74 162.512C402.569 162.969 398.618 159.084 394.983 155.07C386.462 145.65 381.553 134.159 377.159 122.446C373.056 111.528 369.596 100.377 365.061 89.6229C364.582 88.4761 364.442 87.0953 362.946 86.6741C362.233 84.4391 361.52 82.2158 360.795 79.9807C363.285 79.501 365.774 79.0212 368.264 78.5414C371.011 79.6648 371.303 82.6721 372.682 84.7433C376.761 90.875 380.864 97.0417 384.639 103.314C386.638 106.637 389.081 110.066 390.203 114.15C391.266 118.023 393.534 121.615 395.416 125.231C397.823 129.865 399.285 134.815 401.272 139.566C404.381 146.996 406.964 154.626 408.729 162.501L408.74 162.512Z" fill="#FFFEFE"/>
<path d="M290.431 18.6407C288.175 19.3077 285.931 19.963 283.675 20.63C281.197 18.7109 278.123 18.4301 275.248 17.7748C255.869 13.3867 236.209 11.3038 216.386 12.3101C197.252 13.2813 178.13 14.826 159.709 20.8172C157.325 19.8694 154.402 20.1034 152.182 16.9674C198.748 2.73816 244.66 1.05313 290.431 18.6407Z" fill="#E3DDE3"/>
<path d="M77.9491 89.0963C77.7387 84.6731 79.4686 81.0924 81.0348 77.8276C84.9738 69.6014 89.6491 61.7262 95.5985 54.7403C98.3803 51.4755 101.571 48.5735 104.552 45.4726C105.896 44.0684 106.854 43.8929 108.514 45.4141C111.869 48.4799 113.645 52.4468 115.235 56.4253C116.006 58.3678 116.906 60.3454 117.549 62.3932C118.344 64.8739 118.484 66.0441 115.41 66.9334C108.911 68.794 103.301 72.5268 97.5504 76.0607C91.04 80.0626 84.9036 84.5678 77.9608 89.0963H77.9491Z" fill="#FFFEFE"/>
<path d="M200.396 76.2596C198.759 77.2776 197.205 76.3298 195.732 75.8852C178.153 70.6779 160.387 69.2269 142.036 70.9354C123.3 72.6789 107.462 80.5658 92.501 90.9452C75.5413 102.705 57.775 112.675 37.7062 118.046C33.8023 119.088 29.8867 120.223 25.7607 119.848C33.9309 116.595 42.253 113.728 50.3296 110.183C56.0919 107.655 61.7374 104.917 67.1841 101.875C77.6568 96.0237 88.0244 89.9388 97.4335 82.3445C99.9698 80.2967 103.5 79.4893 106.095 77.5C114.124 71.3332 123.919 70.479 133.165 67.9982C134.567 67.6238 136.157 67.928 137.665 67.9163C138.553 68.1504 139.395 68.2674 139.862 67.2025C147.81 66.3249 155.688 67.0738 163.624 67.7759C170.567 68.3961 177.533 68.6535 184.383 70.046C190.075 71.2045 195.37 73.3576 200.396 76.2479V76.2596Z" fill="#E3DDE3"/>
<path d="M236.782 175.092C240.289 178.778 241.037 183.435 241.995 188.221C243.106 193.768 241.212 198.6 239.88 203.644C239.237 206.066 236.735 206.815 235.134 208.336C229.337 213.824 221.704 215.24 214.656 210.653C221.751 207.072 225.573 201.479 225.246 193.346C230.342 188.56 230.728 182.101 231.522 175.77C233.229 175.174 234.982 174.94 236.782 175.092Z" fill="#FFFEFE"/>
<path d="M323.883 164.595C326.361 167.638 326.677 171.499 327.799 175.057C319.699 181.095 310.757 184.921 300.647 186.197C289.999 187.531 279.514 187.156 269.229 183.985C266.564 183.166 263.922 182.031 261.818 180.03C262.625 180.065 263.455 179.983 264.226 180.135C272.116 181.762 280.04 181.785 287.988 180.591C301.418 178.567 313.481 173.453 323.883 164.595Z" fill="#E3DDE3"/>
<path d="M125.801 190.362C112.091 185.834 102.763 176.73 97.714 163.25C97.3049 162.15 95.727 160.511 97.3984 159.657C98.7543 158.967 99.1751 160.991 99.8296 161.939C110.209 177.256 125.24 183.458 143.111 183.985C149.458 184.172 155.817 184.043 162.175 184.079C163.496 184.079 164.828 184.207 166.196 184.64C160.153 189.286 153.327 191.638 145.893 192.363C140.797 190.585 135.748 188.666 130.593 187.098C128.057 186.325 125.602 186.618 125.801 190.351V190.362Z" fill="#73A69E"/>
<path d="M179.264 40.8973C178.025 42.828 176.739 41.4238 175.792 40.7217C163.894 31.9923 150.102 27.9435 136.04 24.6905C123.592 21.8119 111.098 21.5778 98.708 25.299C98.7548 19.9045 100.356 18.2546 105.674 17.7163C114.557 16.827 123.277 18.3131 132.078 19.062C140.248 19.7524 147.682 22.6895 155.127 25.2873C159.873 26.9372 164.326 30.202 168.931 32.6593C172.952 34.8007 176.552 37.2112 179.264 40.8856V40.8973Z" fill="#E3DDE3"/>
<path d="M323.883 164.595C313.481 173.442 301.419 178.567 287.989 180.592C280.052 181.785 272.128 181.762 264.226 180.135C263.443 179.971 262.625 180.053 261.819 180.03C261.596 179.96 261.363 179.889 261.141 179.831C261.187 179.562 261.234 179.293 261.281 179.023C262.987 179 264.706 178.988 266.412 178.965C267.067 179.328 267.674 179.433 268.095 178.626C274.886 178.321 281.361 176.683 287.907 174.834C296.065 172.529 302.868 168.082 309.671 163.437C312.3 161.647 314.778 159.634 317.315 157.715C319.816 159.716 322.469 161.576 323.872 164.619L323.883 164.595Z" fill="#FFFEFE"/>
<path d="M168.919 202.158C164.688 200.917 160.469 199.63 157.056 196.623C162.76 193.955 168.604 191.544 173.525 187.46C174.892 186.325 176.528 186.688 177.697 187.636C179.38 188.993 182.606 187.811 183.086 190.105C183.471 191.965 181.356 193.697 180.28 195.441C179.918 196.026 179.743 196.705 179.404 197.301C176.704 202.029 176.657 202.064 173.069 197.711C172.087 196.517 170.941 196.19 169.749 196.787C168.452 197.43 167.669 198.589 168.312 200.203C168.557 200.835 168.721 201.502 168.931 202.158H168.919Z" fill="#E3DDE3"/>
<path d="M191.548 163.624C199.637 163.741 206.766 166.222 212.833 171.605C214.808 173.36 215.673 175.466 213.908 177.678C212.213 179.796 210.226 179.445 207.807 178.169C202.103 175.162 197.112 171.382 193.044 166.374C192.413 165.59 191.513 164.958 191.537 163.624H191.548Z" fill="#F5AC3F"/>
<path d="M225.257 193.335C225.584 201.467 221.762 207.061 214.667 210.641C210.425 208.664 207.795 205.188 205.434 200.73C208.987 201.28 211.289 203.234 213.604 204.931C215.567 206.37 216.993 206.522 218.431 204.486C220.056 202.181 217.928 201.573 216.666 200.578C216.058 200.098 215.24 199.806 214.983 198.46C218.945 197.933 222.113 195.675 225.245 193.346L225.257 193.335Z" fill="#E3DDE3"/>
<path d="M248.248 147.944C247.792 144.773 248.587 141.508 247.477 138.372C247.255 137.752 247.091 136.781 247.944 136.184C252.257 133.095 253.695 128.683 253.742 123.604C253.742 123.347 254.116 123.101 254.314 122.856C255.659 130.672 256.196 138.395 251.778 145.568C250.96 146.891 250.025 148.038 248.26 147.956L248.248 147.944Z" fill="#E3DDE3"/>
<path d="M241.889 150.074C236.665 146.61 233.216 141.66 230.435 136.184C229.862 135.06 229.219 133.949 229.348 132.615C233.193 134.475 236.302 137.857 240.884 138.255C241.223 138.29 241.772 138.77 241.796 139.074C242.111 142.737 243.619 146.399 241.901 150.074H241.889Z" fill="#E3DDE3"/>
<path d="M248.248 147.944C250.013 148.026 250.948 146.879 251.767 145.557C256.185 138.384 255.647 130.661 254.303 122.844C254.876 121.908 253.309 121.276 254.245 119.813C257.669 122.317 258.148 125.992 258.569 129.596C259.072 133.855 257.412 137.682 255.764 141.473C254.361 144.691 253.345 148.108 250.867 150.799C250.013 151.723 249.429 153.315 247.98 152.671C246.507 152.016 248.459 150.998 248.178 150.015C248.003 149.383 248.213 148.646 248.248 147.944Z" fill="#FFFEFE"/>
<path d="M125.801 190.362C125.603 186.63 128.057 186.337 130.594 187.109C135.748 188.677 140.797 190.596 145.894 192.375C140.949 194.037 136.04 193.089 131.213 191.954C129.413 191.533 127.391 191.568 125.801 190.362Z" fill="#9DCFC4"/>
<path d="M208.449 248.917C209.875 247.911 211.301 246.905 212.727 245.898C215.614 246.87 217.882 248.286 217.543 251.901C217.414 253.224 216.736 254.171 215.719 254.64C214.539 255.189 214.27 253.809 213.802 253.142C212.435 251.176 210.319 250.216 208.449 248.917Z" fill="#E3DDE3"/>
<path d="M236.782 175.092C234.982 174.94 233.228 175.174 231.522 175.77C231.674 174.179 230.47 171.839 232.13 171.172C233.719 170.54 234.795 172.868 236.034 173.968C236.361 174.249 236.524 174.717 236.77 175.092H236.782Z" fill="#E3DDE3"/>
<path d="M216.83 241.089C217.099 238.971 216.409 236.982 216.105 234.934C217.625 236.022 218.443 237.625 219.168 239.252C219.589 240.2 221.12 241.206 219.986 242.177C218.841 243.172 217.789 241.803 216.83 241.077V241.089Z" fill="#E3DDE3"/>
<path d="M146.068 178.626C149.002 177.526 151.936 177.432 154.846 178.696C151.913 179.503 148.99 179.609 146.068 178.626Z" fill="#9DCFC4"/>
<path d="M164.816 178.661C165.845 177.654 166.71 177.619 167.294 179.105C166.429 179.129 165.494 179.62 164.816 178.661Z" fill="#9DCFC4"/>
<path d="M268.107 178.614C267.686 179.421 267.078 179.316 266.424 178.953C266.751 177.643 267.312 177.549 268.107 178.614Z" fill="#9DCFC4"/>
<path d="M139.652 198.776C138.939 199.56 138.249 199.478 137.595 198.706C138.319 197.652 139.009 197.652 139.652 198.776Z" fill="#E3DDE3"/>
<path d="M143.848 198.694C143.182 199.455 142.504 199.548 141.791 198.764C142.434 197.641 143.123 197.641 143.848 198.694Z" fill="#E3DDE3"/>
<path d="M139.862 67.2143C139.407 68.2791 138.553 68.1621 137.665 67.9281C138.261 67.2845 138.904 66.7696 139.862 67.2143Z" fill="#F5AC3F"/>
<path d="M261.292 179C261.245 179.269 261.198 179.538 261.152 179.808C260.626 179.878 260.158 179.655 260.275 179.129C260.404 178.555 260.906 178.696 261.292 178.988V179Z" fill="#9DCFC4"/>
<path d="M146.642 198.109C146.385 198.846 146.081 199.49 145.228 198.647C145.461 197.84 146.057 197.968 146.642 198.109Z" fill="#E3DDE3"/>
<path d="M168.487 106.157C173.221 106.298 178.001 109.34 181.496 114.606C182.828 116.619 182.898 118.631 180.783 120.094C178.784 121.475 177.031 120.691 175.722 118.819C173.641 115.846 171.222 113.892 167.224 113.717C162.047 113.494 158.973 115.998 156.67 120.117C156.331 120.726 156.015 121.358 155.782 122.001C154.999 124.201 153.14 125.266 151.211 124.646C149.002 123.932 148.395 121.884 149.108 119.486C151.34 111.915 158.891 106.169 168.499 106.157H168.487Z" fill="#7C3C2F"/>
<path d="M401.552 186.22C406.695 186.22 408.67 187.952 408.658 192.434C408.647 197.114 404.696 200.718 399.542 200.742C395.018 200.765 391.897 197.933 391.874 194.025C391.862 190.514 396.094 185.424 401.552 186.22Z" fill="#F5AC3F"/>
<path d="M414.83 201.514C414.947 203.772 413.497 204.767 412.083 204.72C409.991 204.662 409.137 202.754 408.834 200.894C408.576 199.314 409.395 198.05 411.078 198.05C413.439 198.05 414.456 199.689 414.818 201.514H414.83Z" fill="#F5AC3F"/>
<path d="M399.495 206.253C399.577 209.073 398.233 210.091 396.269 209.939C394.165 209.775 394.118 207.903 394.083 206.312C394.048 204.627 394.761 203.152 396.596 203.211C398.724 203.269 399.378 204.954 399.495 206.253Z" fill="#F5AC3F"/>
<path d="M407.256 205.177C407.233 206.733 407.198 208.418 405.082 208.359C402.803 208.301 401.973 206.604 401.88 204.627C401.798 203 402.464 201.526 404.381 201.631C406.45 201.748 407.28 203.199 407.268 205.177H407.256Z" fill="#F5AC3F"/>
<path d="M348.265 205.692C352.379 205.083 355.465 207.681 355.71 211.917C355.979 216.445 351.385 220.295 346.208 220.272C341.859 220.248 338.622 217.545 338.575 213.906C338.505 209.389 342.853 205.703 348.265 205.703V205.692Z" fill="#F5AC3F"/>
<path d="M361.367 221.617C361.309 223.583 360.502 224.438 358.761 224.204C356.248 223.876 355.289 222.097 355.301 219.897C355.301 218.423 356.341 217.311 358.036 217.58C360.42 217.955 361.636 219.382 361.379 221.617H361.367Z" fill="#F5AC3F"/>
<path d="M354.273 225.28C353.361 226.263 354.168 228.755 351.947 228.475C349.714 228.182 348.581 226.263 348.3 224.18C348.043 222.226 349.445 221.114 351.234 221.185C353.665 221.278 353.642 223.56 354.261 225.28H354.273Z" fill="#F5AC3F"/>
<path d="M346.313 226.52C346.137 228.276 345.53 229.902 343.507 229.727C341.497 229.551 340.702 227.89 340.749 225.994C340.784 224.356 341.427 223.115 343.391 223.104C345.763 223.092 346.137 224.707 346.313 226.52Z" fill="#F5AC3F"/>
<g style="mix-blend-mode:multiply" filter="url(#filter0_f_53_8400)">
<path d="M488.417 271.399C488.581 274.011 484.794 274.103 482.421 274.685C473.678 276.854 464.597 277.823 455.526 278.599C438.742 280.03 421.922 280.916 405.068 281.553C396.056 281.894 387.068 282.273 378.045 282.531C363.937 282.937 349.817 283.02 335.698 282.974C327.13 282.974 318.563 283.104 309.995 282.947C288.839 282.568 267.695 281.913 246.598 280.759C231.158 279.919 215.717 278.894 200.441 276.882C195.45 276.226 190.4 275.525 185.713 273.808C184.416 273.328 183.06 272.885 183.002 271.592C182.943 270.143 184.393 269.654 185.83 269.165C193.603 266.525 201.925 265.805 210.165 264.974C228.504 263.128 246.948 262.177 265.428 261.494C280.33 260.949 295.245 260.783 310.147 260.358C323.928 259.971 337.697 259.943 351.454 260.063C368.226 260.201 384.999 260.524 401.737 261.171C418.007 261.798 434.265 262.721 450.477 263.921C461.16 264.706 471.878 265.703 482.211 268.186C484.677 268.777 488.277 269.026 488.417 271.399Z" fill="#808786"/>
</g>
</g>
<defs>
<filter id="filter0_f_53_8400" x="153" y="230" width="365.423" height="83.0243" filterUnits="userSpaceOnUse" color-interpolation-filters="sRGB">
<feFlood flood-opacity="0" result="BackgroundImageFix"/>
<feBlend mode="normal" in="SourceGraphic" in2="BackgroundImageFix" result="shape"/>
<feGaussianBlur stdDeviation="15" result="effect1_foregroundBlur_53_8400"/>
</filter>
<clipPath id="clip0_53_8400">
<rect width="423" height="310" fill="white"/>
</clipPath>
</defs>
</svg>
