<svg width="325" height="308" viewBox="0 0 325 308" fill="none" xmlns="http://www.w3.org/2000/svg">
<g clip-path="url(#clip0_53_8457)">
<path d="M324.782 296.404C324.774 293.151 324.767 289.901 324.759 286.648C323.768 285.94 324.093 285.11 324.533 284.268C324.996 280.789 323.688 277.498 323.466 274.088C323.079 268.175 320.918 262.737 318.561 257.421C315.906 251.428 311.475 246.659 307.01 241.975C302.075 236.804 297.495 231.42 294.446 224.837C291.928 219.399 290.168 213.769 289.028 207.902C288.335 204.339 287.444 200.791 287.23 197.171C287.126 195.453 286.663 193.861 286.369 192.219C285.669 188.331 284.861 184.461 284.069 180.588C283.136 176.023 281.238 171.79 279.532 167.488C278.082 163.833 276.081 160.5 273.755 157.366C272.875 156.179 272.982 155.322 273.888 154.212C275.449 152.298 277.294 150.446 278.239 148.234C281.72 140.094 282.723 131.732 279.467 123.197C276.616 115.723 271.643 110.017 264.576 106.465C257.104 102.711 249.05 102.171 241.065 104.567C232.916 107.02 226.974 112.416 222.957 119.906C222.195 121.322 222.107 122.78 223.404 124.024C224.736 125.298 226.534 125.574 228.041 124.59C230.739 122.834 233.493 121.249 236.608 120.323C243.583 118.253 250.301 119.152 254.774 125.011C257.069 128.019 256.538 132.838 253.492 135.119C249.593 138.039 244.884 139.007 240.273 138.697C236.099 138.414 231.894 138.134 227.716 137.763C223.733 137.411 219.693 137.694 215.68 137.756C210.786 137.832 205.881 138.234 201.007 137.997C196.343 137.767 191.679 137.449 187.023 136.657C178.935 135.283 171.849 132.107 165.842 126.577C164.304 125.161 162.15 123.806 161.832 121.781C161.255 118.103 159.56 114.552 160.164 110.721C160.849 106.4 160.738 102.011 160.796 97.6936C160.91 89.6261 161.603 81.5701 161.366 73.495C161.159 72.6568 161.132 71.8187 161.408 70.8428C162.062 71.3939 162.223 71.9795 162.031 72.6875C162.418 74.9493 162.95 77.1652 164.162 79.1514C166.561 83.0703 171.78 85.424 176.7 83.5564C180.377 82.1595 182.753 79.2509 185.293 76.5566C189.043 72.588 192.567 68.4241 195.605 63.8584C197.82 60.5288 199.806 57.1151 200.617 53.1387C200.49 52.5723 200.05 51.9485 200.907 51.5658C201.095 49.304 201.099 47.046 200.907 44.7842C200.337 44.7612 200.238 44.4168 200.322 43.9422C200.05 38.5805 197.495 34.2023 193.795 30.6622C187.861 24.9828 180.974 20.4592 174.317 15.6792C168.857 11.7603 162.908 8.64119 157.065 5.36521C153.519 3.37895 150.041 1.19368 145.947 0.279011C139.967 -1.06047 134.151 2.55613 132.024 7.77627C130.065 12.5793 127.961 17.3669 126.813 22.4761C126.71 22.9277 126.583 23.8653 125.883 23.6166C124.514 23.1344 123.109 23.5324 121.782 23.23C117.803 22.3192 113.793 21.7681 109.715 21.7451C108.567 21.7413 107.381 21.8982 106.279 21.6686C102.747 20.9338 99.1433 21.1137 95.6693 21.4581C90.707 21.948 85.6567 21.3854 80.7479 22.8129C79.3323 23.2262 77.6182 23.0349 76.1337 23.4367C75.0242 23.739 74.7449 23.5745 74.435 22.5259C73.6124 19.7283 72.7477 16.9345 71.7032 14.2096C70.7544 11.7297 69.3961 9.40278 68.5085 6.9037C67.8351 5.00163 66.7256 3.48228 65.134 2.48341C59.9115 -0.807881 54.6392 -0.597392 49.2599 2.37243C45.0934 4.6725 41.0646 7.20221 36.8942 9.49846C31.8554 12.2731 26.9734 15.3539 22.4013 18.9667C18.8011 21.8064 14.9521 24.3858 11.2753 27.1643C7.78982 29.8011 4.78258 33.0656 2.78158 36.8698C-0.306004 42.7329 -0.841645 49.1662 1.26266 55.4847C2.8581 60.2762 5.73143 64.4631 8.95293 68.3935C12.8019 73.0893 16.7197 77.6818 21.2688 81.7691C26.2541 86.2468 34.832 83.675 37.3725 78.5276C38.2678 76.7174 38.505 74.7426 39.1822 72.8865C39.1516 72.4043 39.0942 71.5891 39.5954 71.6809C40.4409 71.8379 40.0048 72.6224 39.8594 73.1812C40.1349 79.6642 39.825 86.155 40.2458 92.6419C40.6322 98.5241 40.5672 104.437 40.835 110.331C40.8962 111.758 41.5467 113.243 41.0263 114.609C40.0775 117.085 39.7714 119.638 39.5992 122.244C39.0138 130.989 41.4472 138.869 46.5893 145.877C50.5454 151.269 55.7182 155.402 61.2621 159.061C61.7747 159.398 62.23 159.566 62.2147 160.251C62.0655 165.999 62.8192 171.687 63.3778 177.381C63.6801 180.477 64.1048 183.57 64.694 186.62C65.2067 189.268 66.1402 191.901 66.5955 194.488C67.3263 198.656 68.1336 202.816 68.9753 206.961C69.6793 210.413 70.609 213.861 71.2173 217.294C72.2695 223.23 73.4364 229.146 74.5766 235.063C75.5713 240.21 76.4781 245.35 76.765 250.586C77.5302 251.424 77.1094 252.396 77.0749 253.322C77.0711 254.302 77.0711 255.282 77.0673 256.261C77.1017 257.061 77.5264 257.911 76.7803 258.615C76.6617 262.626 75.6861 266.487 74.7181 270.345C73.5474 275.022 72.1011 279.591 72.8625 284.582C73.6545 289.79 78.8158 293.468 83.2731 293.472C91.8051 293.472 100.337 293.514 108.869 293.537C109.336 292.863 109.849 292.844 110.407 293.426C114.776 292.584 117.351 289.653 118.79 285.741C120.458 281.195 120.818 276.315 121.009 271.554C121.227 266.231 121.736 260.888 121.319 255.542C121.281 255.086 121.128 254.34 121.9 254.397C123.4 254.505 124.931 254.631 126.358 255.056C126.683 255.151 127.62 255.595 127.666 256.613C127.8 259.618 128.213 262.614 128.366 265.622C128.676 271.864 128.443 278.102 126.469 284.08C124.961 288.631 123.924 293.17 124.131 298.007C124.345 303.07 129.396 308.076 134.213 307.996C143.2 307.847 152.191 307.954 161.182 307.946C161.741 307.946 162.284 307.912 162.858 307.778C167.499 306.668 169.71 303.089 170.728 299.048C172.025 293.904 172.989 288.646 172.882 283.231C172.817 279.855 173.054 276.484 172.924 273.074C172.683 266.736 172.113 260.391 172.385 254.034C172.45 252.518 171.799 250.662 172.668 249.591C173.356 248.737 175.2 248.818 176.528 248.481C176.589 248.465 176.639 248.408 176.696 248.393C184.142 246.694 191.346 244.187 198.531 241.669C200.946 240.823 202.698 241.114 204.347 242.897C205.281 243.904 206.371 244.826 207.197 245.867C210.939 250.567 214.011 255.664 215.217 261.669C216.602 268.581 217.302 275.577 217.103 282.622C216.965 287.452 220.99 293.552 227.846 293.487C236.003 293.407 244.168 293.518 252.325 293.441C255.439 293.411 258.148 292.221 260.352 289.913C261.863 288.332 262.208 286.308 262.667 284.337C263.711 279.821 263.31 275.209 262.965 270.693C262.533 265.029 262.338 259.304 260.716 253.475C261.538 253.976 262.093 254.256 262.579 254.623C263.08 255.002 263.489 255.503 263.987 255.894C268.853 259.683 272.515 264.306 274.833 270.127C277.393 276.545 278.342 283.189 278.69 289.993C279.413 291.095 279.134 292.251 278.885 293.407C278.908 294.536 278.927 295.665 278.95 296.794C279.796 297.253 279.773 297.8 279.107 298.413C279.233 299.067 279.478 299.729 279.467 300.38C279.394 303.51 284.552 307.927 287.501 307.935C296.6 307.958 305.702 307.973 314.8 307.938C319.735 307.923 324.109 302.933 324.273 299.209C324.323 298.252 323.011 297.046 324.782 296.404ZM257.93 137.687C259.177 135.586 260.589 133.684 260.865 131.008C261.393 125.865 259.468 121.923 255.684 118.842C251.273 115.256 246.223 114.208 240.487 115.004C237.017 115.482 233.796 116.596 230.329 117.556C234.446 112.003 242.871 106.534 253.725 107.885C263.321 109.079 273.238 116.171 275.668 126.998C277.642 132.581 277.064 138.089 275.036 143.504C274.068 146.091 273.104 148.709 270.916 150.634C269.959 151.476 269.401 151.866 268.226 150.718C263.834 146.428 258.592 143.416 252.333 141.135C254.67 140.174 256.22 138.812 257.93 137.687ZM66.4922 156.03C65.9795 156.294 65.4018 156.034 64.8929 155.724C58.1171 151.602 52.225 146.604 48.1771 139.612C46.6429 136.963 45.6596 134.093 44.4927 131.322C44.1483 130.511 44.2555 129.007 44.2057 127.817C43.9762 122.133 44.5845 116.668 47.19 111.444C49.2178 107.38 52.0643 104.07 55.1825 100.878C58.2433 97.7472 61.7212 95.2367 65.6352 93.304C65.6696 93.059 65.7729 92.9213 66.0446 93.0246C66.1555 92.9825 66.2665 92.9481 66.3774 92.9251C66.4195 92.6763 66.5305 92.5309 66.8098 92.6266C69.5798 91.3139 72.346 89.9974 75.116 88.6885C75.556 88.4818 76.0572 88.3977 76.3557 87.9575C76.1797 87.2457 76.7842 86.9472 77.1438 86.5453C80.3156 82.99 80.2123 75.332 77.2012 71.7498C73.4517 67.2913 66.4884 66.2503 61.5988 68.3131C60.3591 68.8374 59.4103 69.6449 58.5188 70.5137C58.339 70.6897 58.163 70.8658 57.987 71.0418C57.811 71.2179 57.635 71.3977 57.459 71.57C57.2868 71.7498 57.107 71.9259 56.9234 72.1019C56.6441 72.8099 56.3801 73.5218 56.0817 74.2221C53.7478 79.7523 55.3509 85.4852 60.229 89.075C60.8144 89.5075 62.0273 89.8175 60.5657 90.7437C54.8803 94.3488 49.8223 98.6351 46.0422 104.288C45.9542 104.418 45.7438 104.46 45.3535 104.67C45.5487 101.463 45.0781 98.4667 44.9977 95.4433C44.6687 83.2005 44.6993 70.9576 44.5156 58.7148C44.4429 53.8697 45.4683 49.4111 47.1709 44.9947C47.5956 43.8963 48.0164 42.7941 48.4373 41.6957C48.9423 37.7079 51.1193 34.363 52.753 30.8421C54.5283 27.0189 56.7244 23.3908 58.7828 19.7053C59.1463 19.0585 59.747 18.5419 60.2367 17.964C59.8158 17.6081 59.9306 17.1871 60.0875 16.7584C59.8771 15.9739 59.3491 15.4113 58.7713 14.887C57.1147 14.6344 56.0434 15.3271 55.194 16.7661C51.7736 22.5603 48.4717 28.4157 46.0346 34.7075C44.5769 38.4771 43.2186 42.2851 41.8068 46.0739C39.0789 53.3951 37.1621 60.9421 35.3677 68.5313C34.8741 70.6132 34.2658 72.6798 33.822 74.7809C33.3322 77.1116 31.6794 78.7228 29.7014 79.4078C27.2374 80.2574 24.8194 78.9907 23.1321 77.2111C19.8073 73.7093 16.3065 70.3453 13.4217 66.4531C10.0969 61.9716 6.2862 57.7044 5.24935 51.9676C4.46502 47.6086 4.35407 43.2533 7.11644 39.3727C8.00025 36.7435 9.79082 34.7725 11.8416 33.0312C15.2314 30.1532 18.6136 27.2561 22.1373 24.5504C24.7467 22.5488 27.5856 20.8496 30.3059 18.9935C32.6665 17.3823 34.9047 15.5529 37.3916 14.1598C39.5648 12.9428 41.8221 11.8521 44.0336 10.681C47.2551 8.97415 50.4383 7.20604 53.5948 5.38052C56.3036 3.81141 59.9268 4.42757 62.4137 6.56308C64.4223 8.28527 65.3138 10.6581 66.278 12.9428C67.9652 16.9383 69.1972 21.1022 70.3106 25.2928C71.0911 28.2397 72.4455 28.9247 76.1376 28.1364C79.646 27.3863 83.2501 27.2523 86.7586 26.6323C92.8649 25.5493 99.0094 25.9702 105.123 25.8401C107.66 25.7865 110.373 26.1386 112.99 26.4678C116.601 26.9194 120.209 27.4054 123.825 27.8532C125.183 28.0216 126.553 28.0943 127.911 28.2588C129.124 28.4043 129.927 27.8493 130.21 26.7586C131.152 23.1535 132.407 19.6517 133.688 16.1614C134.71 13.3791 135.781 10.593 137.361 8.08626C139.615 4.51942 143.322 3.53586 147.083 5.42261C154.054 8.91292 160.903 12.5946 167.483 16.835C174.902 21.615 182.057 26.705 188.806 32.3768C191.086 34.2941 193.34 36.3263 194.235 39.3612C197.173 44.899 197.189 50.5669 194.744 56.2233C192.647 61.0684 189.116 64.9759 185.772 68.9561C183.327 71.8685 180.591 74.5474 177.913 77.2532C176.291 78.8912 174.42 79.9513 171.929 79.228C169.171 78.4243 167.698 76.4571 167.051 73.8624C165.777 68.7188 164.637 63.5446 163.237 58.4239C161.281 51.2673 159.242 44.1298 156.346 37.3061C154.272 32.4265 152.474 27.4016 149.559 22.8779C148.373 21.0371 147.485 18.9628 146.387 17.0302C145.515 15.4955 144.405 14.5693 142.549 14.8985C142.098 15.4151 141.52 15.8629 141.321 16.525C141.26 16.724 141.233 16.9383 141.252 17.1832C141.195 17.3363 141.134 17.4894 141.076 17.6387C144.642 23.2798 147.726 29.1658 150.511 35.2394C151.579 37.574 152.015 40.0501 152.987 42.3731C154.364 44.5431 154.326 47.222 155.535 49.4532C156.667 51.5428 156.759 53.797 156.74 56.1162C156.679 64.4631 156.572 72.8176 156.736 81.1645C156.878 88.589 156.021 95.9791 156.239 103.4C156.254 103.851 156.495 104.54 155.768 104.659C155.175 104.755 155.213 104.07 154.969 103.737C151.342 98.727 146.88 94.6167 141.646 91.3292C139.772 90.1505 139.787 90.1237 141.47 88.8186C146.406 84.9915 147.764 78.7802 144.868 73.2768C144.573 72.7181 144.302 72.144 144.019 71.5776C140.2 67.8424 135.67 66.3957 130.448 67.6242C124.491 69.0249 119.972 76.1625 121.912 82.2896C122.662 84.6586 124.41 86.4841 125.738 88.5393C128.623 90.736 132.345 91.2067 135.345 93.193C136.275 93.8091 137.239 94.3449 137.97 95.2022C142.392 97.1196 145.859 100.304 148.95 103.863C153.056 108.582 155.661 114.043 156.725 120.293C157.547 125.119 157.008 129.772 155.485 134.292C154.047 138.567 151.364 142.164 148.56 145.689C145.48 149.562 141.386 152.119 137.43 154.886C136.979 155.203 136.451 155.414 135.984 155.708C134.909 156.382 134.484 155.992 134.488 154.832C134.492 152.984 134.519 151.139 134.488 149.29C134.461 147.683 132.506 146.531 131.079 147.285C128.737 148.521 126.572 150.014 124.51 151.686C123.416 152.574 121.912 152.773 120.623 153.171C115.285 154.821 109.917 156.478 104.251 156.658C103.746 157.021 103.214 156.945 102.679 156.749C97.0582 156.971 91.4913 156.401 86.112 154.855C82.8905 153.929 79.7455 152.628 76.6426 151.265C74.3585 150.262 72.5067 148.659 70.433 147.388C69.5186 146.833 68.7572 146.799 68.0647 147.021C67.3531 147.247 66.8098 147.947 66.7486 148.931C66.6338 150.791 66.0828 152.62 66.7639 154.503C66.9169 154.932 67.1044 155.716 66.4922 156.03ZM67.1847 74.4364C67.1656 73.3993 68.7113 71.5776 69.6448 71.5393C71.9978 71.436 73.6698 72.5803 73.6813 74.3408C73.6966 76.2734 72.2963 77.4101 70.0695 77.2532C68.1374 77.2455 67.2153 76.35 67.1847 74.4364ZM133.73 74.578C133.73 76.4457 132.556 77.7124 130.781 77.6282C128.638 77.5249 127.892 76.3232 127.666 74.2413C127.498 72.7181 128.669 71.9029 130.738 71.8991C133.187 71.8953 133.723 72.3775 133.73 74.578ZM258.405 282.473C258.217 286.277 255.856 288.646 252.103 288.776C248.48 288.899 244.845 288.753 241.214 288.726C236.508 288.761 231.799 288.853 227.089 288.807C224.59 288.78 222.222 286.346 222.115 283.889C221.962 280.399 222.096 276.878 221.667 273.422C221.044 268.343 220.554 263.25 219.047 258.274C218.17 255.392 216.778 252.744 215.963 249.866C214.888 248.232 213.847 246.571 212.726 244.968C211.153 242.71 209.057 240.911 207.151 238.806C208.758 237.692 210.629 237.321 212.252 236.429C216.391 234.145 221.04 232.943 225.046 230.363C226.052 229.717 227.024 229.701 228.076 230.673C232.923 235.147 238.257 238.99 243.797 242.553C247.214 244.749 250.642 246.931 254.104 249.055C254.77 249.461 254.804 250.103 254.954 250.632C256.212 255.04 257.391 259.43 257.773 264.076C258.278 270.211 258.715 276.327 258.405 282.473ZM320.084 296.277C319.904 300.089 318.756 301.777 315.73 302.925C315.439 303.036 315.117 303.128 314.808 303.135C309.543 303.204 304.271 303.396 299.006 303.044C295.13 303.342 291.239 303.449 287.387 302.963C285.676 302.745 284.697 301.222 284.081 299.664C283.58 298.394 283.289 297.05 283.308 295.661C283.381 290.242 283.121 284.873 282.176 279.495C281.1 273.338 279.371 267.498 276.081 262.151C273.062 257.245 268.93 253.479 264.285 250.172C259.874 247.03 255.191 244.321 250.623 241.427C245.683 238.297 240.901 234.952 236.248 231.389C232.009 228.14 228.106 224.581 224.962 220.298C223.335 218.082 221.587 215.847 220.86 213.084C219.938 213.061 220.057 212.234 219.881 211.714C219.356 210.149 218.587 208.717 217.86 207.248C216.931 205.365 216.487 203.222 216.005 201.151C215.4 198.549 214.67 197.623 212.952 197.726C211.18 197.837 210.174 199.471 210.813 201.124C212.053 204.332 213.258 207.558 214.474 210.776C215.733 211.917 215.756 213.605 216.345 215.04C217.183 216.907 218.163 218.652 219.467 220.279C220.642 221.741 221.365 223.566 222.299 225.227C222.922 226.337 221.862 226.555 221.327 226.835C216.246 229.51 211.104 232.036 205.671 233.988C198.719 236.491 191.836 239.208 184.693 241.117C181.261 242.036 177.902 243.196 174.451 244.038C173.731 244.214 172.974 244.244 173.15 243.123C173.888 238.416 174.519 233.685 175.943 229.12C176.05 228.779 176.597 228.58 176.937 228.312C177.531 226.464 176.907 224.267 178.537 222.717C178.552 222.575 178.564 222.437 178.579 222.296C178.441 221.741 178.782 221.557 179.229 221.45C179.47 220.865 179.673 220.256 179.96 219.693C180.691 218.266 180.469 217.064 179.053 216.276C177.798 215.579 176.115 216.306 175.51 217.868C174.351 220.853 172.725 223.647 171.964 226.797C171.761 227.627 171.631 228.568 170.835 229.15C170.751 232.005 169.657 234.669 169.27 237.474C168.777 241.029 167.969 244.547 168.111 248.171C168.122 248.458 167.908 248.753 167.801 249.04C167.793 253.49 167.591 257.953 167.824 262.392C168.142 268.458 168.769 274.532 168.421 280.59C168.054 286.905 167.878 293.311 165.49 299.324C164.469 301.899 162.651 303.346 159.701 303.235C154.754 303.055 149.796 303.445 144.849 303.044C141.294 303.396 137.732 303.174 134.174 303.181C131.152 303.189 128.91 300.602 128.753 296.951C128.581 292.875 129.859 289.105 130.949 285.278C132.051 281.398 132.598 277.433 133.053 273.418C133.424 270.108 132.977 266.881 133 263.621C132.965 262.499 132.931 261.378 132.896 260.257C132.544 260.046 132.066 259.866 132.667 259.403C131.328 252.537 129.893 245.691 128.684 238.802C128.106 235.507 127.169 232.296 126.637 229.001C126.362 227.286 125.612 226.238 123.779 226.498C123.683 226.513 123.595 226.529 123.511 226.548C123.427 226.567 123.347 226.59 123.27 226.617C123.121 226.666 122.987 226.728 122.865 226.8C122.746 226.873 122.646 226.953 122.555 227.041C122.329 227.267 122.184 227.55 122.099 227.868C122.08 227.933 122.065 227.994 122.053 228.063C121.985 228.419 121.973 228.817 121.992 229.223C121.996 229.33 122.004 229.441 122.011 229.548C122.348 231.129 122.685 232.706 123.021 234.286C124.035 239.028 125.045 243.766 126.04 248.511C126.235 249.449 126.285 250.257 124.774 250.096C116.999 249.269 109.879 246.529 103.054 242.874C102.629 242.648 102.047 242.553 101.963 241.917C99.4953 241.186 97.6588 239.411 95.7038 237.907C93.6109 236.295 91.7745 234.347 89.8691 232.503C89.2072 231.856 88.7251 231.029 88.0747 230.363C86.969 229.227 85.7217 228.396 84.023 229.116C82.8637 230.758 83.3343 232.024 84.6045 233.482C88.8476 238.347 93.5918 242.576 99.0668 246.005C100.046 246.621 101.339 246.762 102.009 247.865C106.122 250.084 110.434 251.795 114.983 252.867C116.135 253.138 116.663 253.555 116.624 254.853C116.506 258.783 116.521 262.718 116.487 266.648C116.992 268.225 117.432 269.798 116.196 271.263C116.318 275.347 115.568 279.335 114.608 283.258C113.609 287.337 111.62 288.723 107.457 288.7C103.968 288.68 100.482 288.612 96.9931 288.562C92.1609 288.853 87.3248 288.78 82.4964 288.612C79.7111 288.512 77.2509 286.124 77.1094 282.515C76.9487 278.451 78.2878 274.677 79.3246 270.862C80.3156 267.211 80.8856 263.506 81.406 259.782C81.4213 259.124 81.0272 258.416 81.647 257.834C81.647 255.81 81.6547 253.781 81.6547 251.753C80.9545 250.938 81.5016 249.996 81.3869 249.12C80.9736 247.436 80.438 245.568 80.4686 244.045C80.5145 241.803 80.1013 239.698 79.8105 237.554C78.9535 231.221 77.6182 224.975 76.1299 218.763C75.9157 217.872 75.2767 216.999 76.0381 216.077C75.9004 213.83 74.611 211.905 74.2628 209.716C73.9338 207.657 73.6009 205.598 73.2681 203.539C71.5158 197.887 70.8692 191.966 69.1475 186.306C68.7534 183.815 68.497 181.308 67.7931 178.862C67.7701 178.782 67.7778 178.694 67.8007 178.598C67.8084 178.571 67.816 178.541 67.8275 178.514C67.8351 178.487 67.8466 178.46 67.8581 178.43C67.8772 178.38 67.904 178.33 67.927 178.281C68.0417 178.055 68.1871 177.802 68.256 177.538C68.2904 177.4 68.3057 177.263 68.2866 177.121C68.1718 176.998 68.0685 176.876 67.9805 176.754C67.9193 176.673 67.8657 176.589 67.816 176.505C67.7931 176.463 67.7701 176.421 67.7471 176.379C67.7012 176.294 67.663 176.21 67.6285 176.122C67.399 175.54 67.3913 174.897 67.5099 174.086C67.8964 171.449 67.3492 168.774 67.0202 166.126C66.9475 165.563 66.8672 165.001 66.8021 164.434C66.584 162.505 66.8021 161.013 69.0862 160.209C70.8845 159.578 71.5387 157.829 71.4392 155.816C71.3321 153.695 71.5387 153.569 73.3943 154.591C80.3691 158.437 87.8987 160.676 95.7458 161.304C101.5 161.767 107.342 161.476 113.074 160.136C117.81 159.03 122.321 157.404 126.683 155.264C127.632 154.798 128.32 153.278 129.273 153.764C130.019 154.147 129.399 155.655 129.564 156.646C130.103 159.956 134.044 162.081 137.04 160.546C141.463 158.276 145.645 155.659 148.958 151.835C149.738 150.932 150.821 150.301 151.648 149.432C155.833 145.035 158.848 139.952 160.49 134.085C160.612 133.649 160.654 133.209 161.086 132.953C161.289 131.759 160.447 129.937 161.572 129.508C162.632 129.099 163.451 130.897 164.434 131.644C168.237 134.533 172.247 137.162 176.788 138.64C182.393 140.461 188.083 141.751 194.093 142.046C205.621 142.612 217.137 141.923 228.65 142.329C233.375 142.497 238.073 143.003 242.756 143.756C250.565 145.012 257.582 147.943 263.65 153.037C264.564 153.803 265.299 154.782 266.118 155.666C267.924 156.933 269.121 158.751 270.411 160.477C275.794 167.691 278.044 176.183 280.236 184.695C280.771 186.777 281.196 188.87 281.95 190.918C282.581 192.624 282.344 194.649 282.528 196.528C282.933 200.692 283.534 204.829 284.475 208.905C285.937 215.22 287.494 221.515 290.47 227.34C293.237 232.744 296.646 237.704 300.747 242.189C304.221 245.986 307.932 249.575 310.905 253.812C311.269 254.336 311.781 254.753 311.647 255.484C313.235 256.464 313.87 258.274 314.528 259.74C316.288 263.674 317.474 267.85 318.569 272.048C319.418 275.305 319.158 278.608 319.625 281.872C320.306 286.641 320.313 291.474 320.084 296.277Z" fill="black"/>
<path d="M278.886 293.407C277.925 292.32 278.212 291.165 278.69 289.994C279.414 291.096 279.134 292.252 278.886 293.407Z" fill="#4B545B"/>
<path d="M324.273 299.209C324.323 298.252 323.01 297.047 324.782 296.404C324.988 297.407 325.321 298.432 324.273 299.209Z" fill="#4B545B"/>
<path d="M77.0752 253.322C76.0499 252.515 76.245 251.57 76.7653 250.586C77.5305 251.424 77.1097 252.396 77.0752 253.322Z" fill="#4B545B"/>
<path d="M76.7799 258.615C76.3399 257.766 75.9726 256.924 77.0669 256.262C77.1013 257.061 77.526 257.911 76.7799 258.615Z" fill="#4B545B"/>
<path d="M324.759 286.649C323.768 285.941 324.093 285.11 324.533 284.268C325.218 285.003 324.896 285.837 324.759 286.649Z" fill="#4B545B"/>
<path d="M162.032 72.6879C161.439 72.6496 161.668 73.2925 161.366 73.4954C161.159 72.6572 161.132 71.8191 161.408 70.8432C162.062 71.3943 162.223 71.9798 162.032 72.6879Z" fill="#4B545B"/>
<path d="M279.107 298.413C278.602 297.916 278.705 297.361 278.95 296.794C279.796 297.254 279.773 297.801 279.107 298.413Z" fill="#4B545B"/>
<path d="M39.8594 73.1816C39.6337 73.0859 39.408 72.9864 39.1822 72.8869C39.1516 72.4047 39.0942 71.5895 39.5955 71.6813C40.441 71.8383 40.0048 72.6228 39.8594 73.1816Z" fill="#4B545B"/>
<path d="M110.407 293.426C109.933 293.993 109.416 294.001 108.869 293.537C109.336 292.864 109.849 292.845 110.407 293.426Z" fill="#364140"/>
<path d="M200.617 53.1391C200.491 52.5727 200.051 51.9489 200.908 51.5662C201.08 52.1402 201 52.6684 200.617 53.1391Z" fill="#364140"/>
<path d="M200.907 44.7846C200.337 44.7616 200.238 44.4172 200.322 43.9426C200.743 44.0689 201.175 44.1799 200.907 44.7846Z" fill="#364140"/>
<path d="M69.1477 186.306C68.7536 183.815 68.4935 181.304 67.7933 178.863C67.6671 178.426 68.3825 177.795 68.2869 177.121C69.9933 177.248 71.6958 177.489 73.4022 177.481C78.8046 177.454 84.1992 177.615 89.6054 177.179C94.4682 176.785 99.3043 176.214 104.079 175.296C110.381 174.083 116.567 172.418 122.268 169.329C122.811 169.035 123.156 169.065 123.404 169.762C124.365 172.448 124.678 172.494 127.36 171.35C131.818 169.448 136.038 167.106 140.124 164.53C147.944 159.605 154.556 153.485 158.412 144.893C160.103 141.131 161.251 137.17 161.079 132.953C161.282 131.759 160.444 129.937 161.565 129.505C162.625 129.095 163.443 130.894 164.427 131.644C168.23 134.534 172.243 137.163 176.781 138.64C182.382 140.462 188.075 141.751 194.082 142.046C205.61 142.613 217.13 141.924 228.642 142.329C233.367 142.498 238.066 143.003 242.749 143.757C250.558 145.012 257.571 147.947 263.643 153.037C264.557 153.803 265.292 154.786 266.11 155.667C266.042 157.343 267.281 158.434 267.958 159.773C272.006 167.764 272.967 176.455 273.728 185.185C274.264 191.32 274.08 197.485 274.432 203.635C274.753 209.208 275.04 214.765 276.05 220.256C277.099 225.959 278.908 231.366 281.728 236.495C284.571 241.665 288.569 245.779 292.69 249.844C293.815 250.953 294.932 252.079 295.552 253.579C288.615 251.952 282.099 249.239 276.012 245.58C268.437 241.026 261.623 235.442 255.168 229.426C253.599 227.964 252.13 226.399 250.741 224.73C247.149 220.417 243.506 216.093 238.215 213.693C232.514 211.106 226.722 210.838 220.845 213.092C219.923 213.069 220.042 212.242 219.866 211.722C219.341 210.157 218.572 208.729 217.845 207.256C216.916 205.377 216.472 203.23 215.99 201.159C215.385 198.557 214.655 197.631 212.937 197.738C211.165 197.845 210.159 199.479 210.798 201.132C212.038 204.343 213.243 207.566 214.459 210.784C214.211 210.972 213.985 211.213 213.706 211.335C208.74 213.586 203.815 215.928 198.662 217.734C192.502 219.893 186.315 221.967 179.999 223.636C179.126 223.865 178.449 223.95 178.522 222.725C178.537 222.583 178.548 222.442 178.564 222.304C179.042 222.227 179.275 221.956 179.214 221.462C179.455 220.873 179.658 220.268 179.945 219.705C180.676 218.278 180.454 217.076 179.038 216.288C177.779 215.587 176.1 216.315 175.492 217.876C174.336 220.861 172.706 223.659 171.945 226.805C171.742 227.635 171.612 228.577 170.82 229.158C168.176 229.422 166.611 231.474 164.932 233.069C158.202 239.449 155.172 247.723 153.706 256.629C153.461 258.114 152.474 259.802 153.699 261.363C153.676 262.236 152.711 262.182 152.356 262.729C151.797 263.013 151.25 263.323 150.676 263.579C145.721 265.818 140.709 266.893 135.483 264.417C134.699 264.046 133.926 263.525 132.981 263.625C132.946 262.504 132.912 261.382 132.877 260.261C132.962 259.932 132.946 259.629 132.648 259.407C131.309 252.546 129.874 245.695 128.665 238.81C128.087 235.515 127.15 232.304 126.618 229.005C126.343 227.291 125.593 226.242 123.764 226.502C121.993 226.755 121.897 228.133 121.992 229.549C118.679 229.824 115.55 228.554 112.29 228.389C112.263 228.255 112.24 228.121 112.213 227.987C114.004 222.702 115.932 217.459 117.547 212.12C119.196 206.666 121.028 201.309 123.795 196.31C125.325 193.547 126.917 190.818 128.317 187.99C129.557 185.484 128.585 183.758 125.941 182.759C123.818 181.959 121.767 182.598 119.831 182.988C113.858 184.194 107.913 185.587 102.055 187.252C96.3009 188.89 90.4815 189.422 84.5512 189.349C79.6578 189.288 74.9709 188.518 70.8694 185.617C69.8326 184.883 69.5418 185.656 69.1324 186.31L69.1477 186.306Z" fill="#4B545B"/>
<path d="M144.022 71.5818C140.204 67.8428 135.674 66.4 130.447 67.6284C124.494 69.0292 119.972 76.1667 121.912 82.2938C122.661 84.6628 124.41 86.4883 125.734 88.5435C125.298 88.4669 124.85 88.4287 124.429 88.3024C118.216 86.4615 111.807 85.6808 105.399 85.0302C101.102 84.5939 96.7403 84.724 92.459 85.3861C88.6292 85.9755 84.719 86.0941 80.9695 87.2308C79.4735 87.6824 77.9623 88.199 76.3477 87.9617C76.1717 87.2461 76.7762 86.9514 77.1359 86.5496C80.3038 82.9942 80.2043 75.3362 77.1932 71.754C73.4438 67.2955 66.4804 66.2545 61.5908 68.3173C59.6089 69.1555 58.3693 70.7169 56.9154 72.1023C56.7624 71.5627 56.6361 71.0154 56.4563 70.4873C55.802 68.5546 56.33 66.3655 55.1822 64.54C56.8925 63.3536 58.6142 62.1863 60.3053 60.977C63.7678 58.5047 67.5364 58.1181 71.68 58.7611C73.6733 59.0673 75.8082 60.0317 77.8896 58.895C81.333 58.5429 83.3034 55.0488 81.8801 51.6121C79.4391 45.7184 74.5189 43.0471 68.6536 41.677C68.4202 41.5622 68.4776 40.923 67.9764 41.3019C67.5096 41.2369 67.0429 41.1718 66.5723 41.1067C65.7803 40.6896 64.9883 40.6284 64.1925 41.0876C63.7946 41.145 63.3967 41.1986 63.0026 41.256C62.5932 41.0608 62.3101 41.1603 62.1685 41.6081C59.7122 41.6311 58.3234 43.6058 56.4639 44.7233C56.5979 41.5507 58.0403 38.7952 59.2722 35.9785C59.804 34.7653 60.7146 33.7052 60.9098 32.0442C56.9881 34.551 53.6404 37.3026 50.6293 40.4676C50.0324 41.0953 49.5083 41.9066 48.4332 41.7038C48.9344 37.7198 51.1114 34.3749 52.7489 30.8502C54.5203 27.0269 56.7203 23.3988 58.7787 19.7133C59.1422 19.0666 59.739 18.5499 60.2326 17.972C60.8753 17.486 60.8026 17.088 60.0833 16.7703C59.8767 15.9858 59.3488 15.4232 58.7672 14.8989C57.5888 13.2838 55.1593 13.3374 53.1506 14.9754C48.6015 18.6915 44.7105 23.062 41.0222 27.5818C34.4223 35.6761 29.0468 44.5817 24.1992 53.8165C22.6688 56.7289 18.8696 57.5135 16.4171 55.3473C12.4266 51.8264 9.53417 47.5669 8.06115 42.4041C7.77038 41.39 7.93107 40.2303 7.1123 39.3846C7.99229 36.7554 9.78668 34.7844 11.8336 33.0431C15.2234 30.1651 18.6056 27.268 22.1294 24.5623C24.7349 22.5607 27.5776 20.8615 30.2941 19.0053C32.6585 17.3941 34.8968 15.5648 37.3798 14.1717C39.553 12.9547 41.8103 11.864 44.0218 10.6929C47.2433 8.98602 50.4265 7.21791 53.583 5.39239C56.2918 3.82711 59.9188 4.43944 62.4057 6.57496C64.4144 8.29715 65.3058 10.6738 66.27 12.9585C67.9573 16.9502 69.1892 21.1179 70.3026 25.3085C71.0869 28.2554 72.4375 28.9404 76.1334 28.1521C79.6381 27.402 83.246 27.268 86.7544 26.648C92.8607 25.565 99.0053 25.9859 105.115 25.8558C107.656 25.8022 110.365 26.1543 112.982 26.4796C116.593 26.9351 120.205 27.4173 123.817 27.865C125.175 28.0334 126.545 28.1061 127.903 28.2707C129.116 28.42 129.919 27.8612 130.203 26.7705C131.144 23.1615 132.399 19.6636 133.68 16.1695C134.702 13.3872 135.773 10.6011 137.353 8.09814C139.607 4.53129 143.314 3.54773 147.075 5.43066C154.046 8.92479 160.895 12.6064 167.472 16.843C174.89 21.6231 182.049 26.7169 188.794 32.3848C191.078 34.3022 193.328 36.3344 194.223 39.3731C194.101 39.5147 193.89 39.641 193.867 39.7979C192.949 45.6839 189.881 50.3071 185.825 54.5666C182.933 57.6053 178.95 57.1575 176.685 53.0358C172.748 45.8676 168.711 38.7684 163.814 32.1782C159.104 25.8367 153.977 19.92 147.967 14.7802C146.191 13.2647 143.697 13.2877 142.538 14.9103C141.952 15.5839 141.153 16.1427 141.244 17.1989C141.183 17.352 141.126 17.5013 141.065 17.6544C144.63 23.2955 147.718 29.1777 150.499 35.2513C151.571 37.5858 152.007 40.062 152.975 42.385C152.768 42.6452 152.623 42.5955 152.397 42.362C150.813 40.7126 149.279 39.0019 147.596 37.4595C145.434 35.4771 143.138 33.6439 140.296 32.071C140.494 33.2268 140.988 33.8736 141.359 34.5854C143.039 37.781 144.707 40.9881 144.841 44.7157C142.45 42.9858 140.062 41.3976 136.913 41.2407C129.686 40.881 124.265 44.2258 120.117 49.6641C117.171 53.5256 118.95 58.0454 123.017 58.9257C124.253 59.649 125.573 59.3734 126.82 59.094C129.996 58.3899 133.164 58.1909 136.355 58.8797C140.196 59.7102 142.905 62.4734 145.981 64.6089C145.556 67.0046 145.074 69.3813 144.011 71.5971L144.022 71.5818Z" fill="#4B545B"/>
<path d="M141.593 99.5118C140.472 98.0001 138.578 97.1391 137.97 95.2025C137.239 94.3453 136.275 93.8095 135.345 93.1933C132.346 91.2071 128.623 90.7363 125.738 88.5396C125.302 88.4631 124.854 88.4248 124.434 88.2985C118.22 86.4577 111.812 85.6769 105.403 85.0302C101.11 84.5939 96.7486 84.724 92.4673 85.3822C88.6336 85.9754 84.7272 86.0941 80.9778 87.2269C79.4818 87.6823 77.9705 88.1952 76.356 87.9579C76.0575 88.398 75.5563 88.4822 75.1163 88.6889C72.3463 89.9977 69.5801 91.3142 66.8101 92.6269C66.6685 92.7264 66.5231 92.8259 66.3777 92.9254C66.2668 92.9484 66.1558 92.9828 66.0449 93.0249C65.911 93.1206 65.777 93.2163 65.6393 93.312C65.2835 94.8237 63.8028 95.3212 62.8425 96.2512C59.0777 99.8946 56.2618 104.135 54.4062 108.999C51.1196 117.614 50.7715 126.355 53.8016 135.104C54.9074 138.292 56.5525 141.242 58.8673 143.787C59.8429 144.855 60.9716 145.383 62.2495 144.851C63.512 144.323 64.3193 143.24 64.503 141.767C64.7402 139.884 65.0157 138.001 65.3677 136.133C65.6431 134.66 66.4351 133.389 68.0076 133.244C69.4271 133.117 70.2649 134.243 70.8274 135.452C74.9709 144.373 82.137 149.402 91.572 151.373C98.9064 152.907 106.222 152.532 113.384 150.385C121.384 147.993 127.066 142.819 130.647 135.314C131.209 134.132 131.998 133.137 133.314 133.244C134.871 133.37 135.728 134.541 136.015 136.057C136.417 138.169 136.853 140.282 137.144 142.413C137.331 143.761 138.169 144.43 139.275 144.84C140.388 145.257 141.325 144.928 142.19 144.044C146.035 140.117 148.044 135.261 148.996 130.01C151.04 118.793 148.361 108.636 141.593 99.5118ZM128.711 114.514C127.942 116.906 126.461 118.915 124.391 120.304C123.259 121.062 123.125 121.893 122.991 123.098C121.981 132.222 118.572 139.899 109.83 144.235C103.023 147.611 96.2206 147.592 89.7584 143.611C84.1725 140.171 80.511 135.142 79.0074 128.613C78.5291 126.55 78.2651 124.461 77.9361 122.383C77.7792 121.372 77.4425 120.733 76.5932 120.193C74.6457 118.95 73.6357 116.937 72.5491 114.996C71.8068 113.672 72.0058 112.336 73.3066 111.839C74.4927 111.383 76.0116 111.188 76.8074 113.021C78.9079 117.867 84.754 119.757 89.3185 119.34C89.6016 119.313 89.8579 119.061 90.1296 118.915C89.2075 116.512 87.0152 114.985 85.9057 112.677C84.272 109.286 83.3116 105.861 84.4403 102.114C84.8879 99.8371 84.9951 97.3419 87.4781 96.1593C89.6245 95.1337 91.7939 94.1616 94.2617 94.0659C96.0101 93.997 97.7357 93.6717 99.5033 93.687C104.01 93.7291 108.479 94.0506 112.714 95.6924C114.872 96.5305 116.181 98.2527 116.59 100.587C117.382 100.744 117.244 101.379 117.298 101.938C117.903 108.195 116.07 113.58 111.551 118.004C111.188 118.36 110.794 118.701 110.805 119.279C114.811 119.485 118.549 118.774 121.859 116.313C123.087 115.406 123.829 114.185 124.353 112.872C125.088 111.047 126.553 111.529 127.701 111.804C128.994 112.114 129.048 113.477 128.711 114.514Z" fill="white"/>
<path d="M220.86 213.084C226.733 210.834 232.53 211.098 238.23 213.685C243.522 216.085 247.164 220.41 250.757 224.723C252.146 226.391 253.615 227.957 255.183 229.418C261.638 235.435 268.452 241.018 276.028 245.573C282.115 249.231 288.63 251.945 295.567 253.571C295.942 253.736 296.317 253.9 296.692 254.065C296.6 254.689 296.948 255.133 297.262 255.626C299.898 259.767 302.071 264.138 303.475 268.845C305.603 275.994 306.134 283.308 305.063 290.682C304.474 294.747 303.154 298.585 299.963 301.483C299.504 301.9 298.934 302.282 299.01 303.044C295.135 303.342 291.244 303.45 287.391 302.964C285.681 302.745 284.701 301.222 284.085 299.665C283.584 298.394 283.289 297.051 283.308 295.662C283.381 290.242 283.121 284.873 282.18 279.496C281.101 273.338 279.375 267.498 276.085 262.152C273.066 257.245 268.934 253.479 264.289 250.173C259.878 247.031 255.191 244.325 250.627 241.428C245.687 238.297 240.905 234.952 236.252 231.389C232.009 228.14 228.111 224.581 224.966 220.299C223.34 218.086 221.591 215.851 220.864 213.084H220.86Z" fill="white"/>
<path d="M69.1475 186.306C69.5568 185.652 69.8476 184.879 70.8845 185.614C74.9859 188.515 79.6728 189.288 84.5663 189.345C90.4966 189.418 96.3159 188.886 102.07 187.248C107.928 185.583 113.877 184.186 119.846 182.984C121.782 182.594 123.833 181.955 125.956 182.755C128.6 183.754 129.572 185.48 128.332 187.986C126.932 190.815 125.34 193.543 123.81 196.306C121.04 201.308 119.211 206.663 117.562 212.116C115.947 217.455 114.019 222.698 112.228 227.983C111.406 228.014 110.61 227.957 109.787 227.746C106.042 226.793 102.35 225.725 98.776 224.214C88.9738 220.069 80.7288 214.034 74.8214 205.036C74.4273 204.439 74.2169 203.586 73.2681 203.536C71.5158 197.883 70.8692 191.963 69.1475 186.302V186.306Z" fill="white"/>
<path d="M65.6426 93.3043C65.2868 94.8237 63.8061 95.3212 62.842 96.2512C59.0772 99.8946 56.2613 104.135 54.4057 108.999C51.1191 117.614 50.7709 126.355 53.8011 135.104C54.9069 138.292 56.552 141.242 58.8668 143.787C59.8424 144.859 60.9711 145.383 62.249 144.851C63.5115 144.323 64.3188 143.244 64.5063 141.767C64.7397 139.884 65.019 138.001 65.3672 136.137C65.6426 134.664 66.4384 133.389 68.0071 133.248C69.4265 133.117 70.2644 134.246 70.8269 135.456C74.9743 144.377 82.1365 149.402 91.5753 151.377C98.9097 152.911 106.221 152.532 113.387 150.389C121.388 147.993 127.069 142.823 130.646 135.318C131.213 134.132 132.001 133.14 133.313 133.248C134.87 133.374 135.727 134.545 136.014 136.057C136.416 138.173 136.852 140.282 137.147 142.413C137.334 143.764 138.172 144.43 139.278 144.844C140.391 145.257 141.329 144.928 142.193 144.044C146.035 140.117 148.043 135.264 149 130.01C151.039 118.793 148.365 108.636 141.593 99.5118C140.472 98.0001 138.582 97.1391 137.973 95.2026C142.396 97.1199 145.859 100.308 148.95 103.863C153.055 108.586 155.661 114.047 156.725 120.293C157.547 125.119 157.004 129.773 155.485 134.292C154.046 138.567 151.364 142.165 148.56 145.689C145.48 149.562 141.382 152.123 137.43 154.886C136.979 155.204 136.451 155.41 135.98 155.705C134.905 156.379 134.48 155.992 134.484 154.832C134.492 152.984 134.515 151.135 134.484 149.291C134.457 147.683 132.502 146.535 131.075 147.285C128.733 148.522 126.564 150.014 124.506 151.687C123.411 152.574 121.908 152.77 120.619 153.171C115.281 154.821 109.91 156.478 104.247 156.658C103.662 155.678 103.157 156.042 102.671 156.75C97.0503 156.972 91.4835 156.401 86.1041 154.855C82.8826 153.929 79.7376 152.628 76.6347 151.266C74.3506 150.263 72.4988 148.659 70.4251 147.393C69.5107 146.834 68.7493 146.803 68.0568 147.025C67.3452 147.251 66.8057 147.951 66.7445 148.935C66.6297 150.795 66.0788 152.624 66.7598 154.507C66.9129 154.936 67.1042 155.72 66.4882 156.034C65.9755 156.298 65.3978 156.038 64.8889 155.728C58.1131 151.606 52.221 146.608 48.1693 139.616C46.635 136.968 45.6556 134.101 44.4848 131.326C44.1443 130.515 44.2476 129.011 44.1979 127.821C43.9683 122.138 44.5766 116.673 47.1822 111.449C49.2099 107.384 52.0603 104.07 55.1747 100.882C58.2355 97.7514 61.7171 95.237 65.6311 93.3081L65.6426 93.3043Z" fill="#DBDCD6"/>
<path d="M161.086 132.953C161.262 137.17 160.11 141.131 158.419 144.893C154.559 153.485 147.951 159.605 140.131 164.53C136.045 167.106 131.825 169.448 127.367 171.35C124.685 172.494 124.372 172.448 123.411 169.762C123.163 169.061 122.818 169.035 122.275 169.329C116.574 172.418 110.388 174.083 104.086 175.296C99.3075 176.214 94.4753 176.785 89.6124 177.179C84.2063 177.619 78.8078 177.454 73.4093 177.481C71.7067 177.489 70.0003 177.248 68.2939 177.121C67.4675 176.249 67.3221 175.38 67.5134 174.086C67.9037 171.45 67.3527 168.774 67.0237 166.126C66.9548 165.564 66.8706 165.001 66.8094 164.435C66.5913 162.502 66.8056 161.013 69.0935 160.209C70.8879 159.578 71.5422 157.829 71.4427 155.816C71.3356 153.696 71.5422 153.569 73.3978 154.595C80.3726 158.441 87.9022 160.676 95.7493 161.308C101.504 161.771 107.346 161.48 113.077 160.141C117.814 159.031 122.325 157.408 126.686 155.269C127.639 154.802 128.328 153.282 129.277 153.768C130.023 154.151 129.407 155.655 129.567 156.65C130.107 159.957 134.051 162.085 137.043 160.55C141.466 158.281 145.648 155.663 148.961 151.84C149.742 150.94 150.825 150.305 151.651 149.436C155.837 145.039 158.852 139.957 160.493 134.09C160.615 133.653 160.657 133.213 161.09 132.957L161.086 132.953Z" fill="#364140"/>
<path d="M215.967 249.87C214.891 248.236 213.847 246.575 212.73 244.968C211.157 242.714 209.064 240.911 207.155 238.81C208.758 237.696 210.633 237.325 212.255 236.43C216.395 234.145 221.044 232.943 225.05 230.368C226.06 229.717 227.028 229.702 228.08 230.678C232.927 235.151 238.261 238.998 243.801 242.557C247.217 244.754 250.642 246.935 254.104 249.055C254.77 249.465 254.804 250.108 254.954 250.632C256.212 255.041 257.391 259.43 257.773 264.077C258.278 270.211 258.715 276.327 258.405 282.473C258.213 286.277 255.856 288.65 252.099 288.777C248.476 288.899 244.841 288.757 241.211 288.731C243.544 281.528 244.796 274.172 243.476 266.637C242.615 261.727 240.552 257.322 236.348 254.237C230.574 250.001 223.833 249.396 217.019 249.055C216.429 249.025 216.028 249.231 215.959 249.87H215.967Z" fill="#DBDCD6"/>
<path d="M142.549 14.8988C143.704 13.2762 146.203 13.2532 147.978 14.7687C153.989 19.9047 159.115 25.8252 163.825 32.1667C168.723 38.7607 172.759 45.8561 176.696 53.0243C178.961 57.1499 182.948 57.5938 185.836 54.5551C189.892 50.2956 192.956 45.6763 193.879 39.7864C193.901 39.6295 194.112 39.5032 194.234 39.3616C197.177 44.8994 197.188 50.5634 194.743 56.2199C192.647 61.065 189.115 64.9724 185.775 68.9526C183.33 71.865 180.595 74.544 177.913 77.2497C176.29 78.8877 174.419 79.9478 171.929 79.2245C169.17 78.4208 167.697 76.4537 167.051 73.8589C165.773 68.7153 164.633 63.5411 163.236 58.4205C161.281 51.2638 159.242 44.1263 156.345 37.3026C154.272 32.4192 152.473 27.3981 149.558 22.8745C148.372 21.0337 147.484 18.9594 146.386 17.0267C145.514 15.492 144.408 14.5659 142.549 14.895V14.8988Z" fill="#364140"/>
<path d="M7.12033 39.3731C7.9391 40.2227 7.78223 41.3784 8.06918 42.3926C9.54219 47.5554 12.4347 51.8149 16.4252 55.3358C18.8776 57.502 22.6807 56.7136 24.2073 53.805C29.0548 44.5741 34.4304 35.6646 41.0302 27.5703C44.7185 23.0467 48.6057 18.6762 53.1587 14.9639C55.1673 13.3259 57.5968 13.2723 58.7752 14.8874C57.1224 14.6348 56.0511 15.3275 55.1979 16.7665C51.7775 22.5607 48.4756 28.4161 46.0385 34.7078C44.5769 38.4775 43.2225 42.2893 41.8107 46.0743C39.0828 53.3955 37.1621 60.9387 35.3716 68.5316C34.878 70.6136 34.2697 72.6802 33.8259 74.7813C33.3361 77.112 31.6833 78.727 29.7052 79.4082C27.2413 80.2578 24.8233 78.9911 23.136 77.2115C19.815 73.7097 16.3142 70.3457 13.4256 66.4535C10.1008 61.972 6.29009 57.7048 5.25324 51.968C4.46891 47.6089 4.35796 43.2537 7.12033 39.3731Z" fill="#364140"/>
<path d="M296.692 254.069C296.317 253.904 295.942 253.74 295.567 253.575C294.947 252.075 293.83 250.953 292.705 249.84C288.584 245.775 284.586 241.661 281.744 236.491C278.924 231.363 277.11 225.955 276.066 220.253C275.056 214.761 274.769 209.204 274.447 203.632C274.092 197.481 274.279 191.316 273.743 185.181C272.982 176.452 272.022 167.76 267.974 159.769C267.297 158.434 266.057 157.339 266.126 155.663C267.932 156.93 269.129 158.747 270.419 160.473C275.802 167.688 278.051 176.18 280.244 184.695C280.779 186.777 281.204 188.867 281.958 190.914C282.585 192.625 282.352 194.646 282.536 196.528C282.941 200.692 283.542 204.829 284.483 208.905C285.944 215.224 287.502 221.516 290.478 227.34C293.245 232.748 296.653 237.704 300.755 242.189C304.229 245.986 307.94 249.576 310.909 253.816C311.276 254.337 311.789 254.758 311.651 255.489C310.836 255.531 310.025 255.577 309.21 255.615C304.952 255.814 300.843 254.777 296.696 254.069H296.692Z" fill="#364140"/>
<path d="M215.967 249.87C216.039 249.231 216.437 249.025 217.027 249.055C223.841 249.396 230.582 250.001 236.356 254.237C240.56 257.322 242.623 261.727 243.483 266.637C244.803 274.172 243.552 281.528 241.218 288.731C236.509 288.765 231.799 288.853 227.093 288.807C224.594 288.784 222.226 286.35 222.119 283.889C221.966 280.399 222.1 276.878 221.671 273.426C221.044 268.348 220.558 263.254 219.047 258.279C218.171 255.393 216.782 252.745 215.967 249.87Z" fill="white"/>
<path d="M152.375 262.726C152.727 262.178 153.695 262.232 153.718 261.359C154.116 261.409 154.475 261.302 154.785 261.049C158.734 257.865 162.598 254.589 165.877 250.686C166.42 250.039 166.86 249.239 167.801 249.04C167.794 253.491 167.595 257.949 167.824 262.389C168.142 268.455 168.769 274.532 168.417 280.59C168.054 286.905 167.878 293.312 165.487 299.324C164.465 301.9 162.648 303.346 159.698 303.235C154.751 303.052 149.792 303.442 144.845 303.04C144.784 302.118 145.534 301.708 146.077 301.226C148.683 298.922 149.842 295.868 150.588 292.611C152.08 286.094 152.329 279.45 152.497 272.802C152.524 271.792 152.685 270.77 152.712 269.783C152.78 267.433 153.484 265.018 152.371 262.718L152.375 262.726Z" fill="#DBDCD6"/>
<path d="M152.374 262.726C153.484 265.026 152.784 267.441 152.715 269.79C152.684 270.778 152.528 271.8 152.501 272.81C152.332 279.458 152.084 286.101 150.592 292.619C149.845 295.872 148.686 298.93 146.081 301.234C145.537 301.716 144.784 302.125 144.849 303.048C141.294 303.404 137.732 303.178 134.174 303.186C131.152 303.189 128.91 300.606 128.757 296.955C128.581 292.879 129.862 289.11 130.949 285.282C132.055 281.402 132.602 277.437 133.053 273.422C133.428 270.112 132.98 266.886 133 263.625C133.948 263.525 134.721 264.046 135.502 264.417C140.728 266.893 145.74 265.818 150.695 263.579C151.265 263.323 151.816 263.013 152.374 262.729V262.726Z" fill="white"/>
<path d="M296.692 254.069C300.839 254.773 304.948 255.81 309.206 255.615C310.021 255.577 310.833 255.531 311.647 255.489C313.239 256.468 313.87 258.279 314.528 259.744C316.288 263.679 317.474 267.85 318.573 272.052C319.422 275.309 319.162 278.612 319.629 281.876C320.31 286.649 320.317 291.478 320.088 296.281C319.908 300.093 318.76 301.781 315.734 302.929C315.439 303.04 315.121 303.136 314.812 303.14C309.543 303.212 304.275 303.4 299.006 303.052C298.93 302.294 299.5 301.907 299.959 301.49C303.15 298.589 304.47 294.754 305.059 290.69C306.13 283.319 305.599 276.002 303.471 268.853C302.071 264.145 299.894 259.771 297.258 255.634C296.944 255.14 296.6 254.696 296.688 254.073L296.692 254.069Z" fill="#DBDCD6"/>
<path d="M116.199 271.264C116.322 275.347 115.568 279.335 114.608 283.258C113.609 287.338 111.62 288.723 107.461 288.7C103.972 288.681 100.482 288.612 96.9968 288.562C98.9404 281.758 100.406 274.903 99.3268 267.754C98.5157 262.4 96.2813 257.892 92.0497 254.36C90.4887 253.055 88.3156 252.76 87.0645 251.053C90.5346 251.799 93.825 251.087 97.0809 249.905C98.7567 249.296 100.153 248.014 102.013 247.865C106.126 250.081 110.438 251.795 114.987 252.867C116.138 253.139 116.666 253.56 116.628 254.853C116.509 258.784 116.525 262.718 116.49 266.648C115.729 268.145 116.238 269.721 116.199 271.264Z" fill="#DBDCD6"/>
<path d="M87.0603 251.053C88.3115 252.76 90.4846 253.055 92.0456 254.36C96.2734 257.892 98.5116 262.4 99.3227 267.754C100.402 274.903 98.9401 281.758 96.9927 288.562C92.1604 288.849 87.3243 288.78 82.4959 288.608C79.7106 288.512 77.2543 286.124 77.1089 282.512C76.9482 278.451 78.2873 274.674 79.3242 270.858C80.3151 267.207 80.8852 263.502 81.4055 259.779C82.4998 259.254 82.2434 258.566 81.6465 257.835C81.6465 255.806 81.6504 253.778 81.6542 251.753C82.3123 251.256 82.033 250.173 82.8747 249.79C83.8886 250.077 84.9063 250.36 85.9202 250.647C86.0656 250.747 86.2148 250.842 86.3602 250.942C86.5936 250.98 86.8231 251.015 87.0565 251.053H87.0603Z" fill="white"/>
<path d="M216.345 215.04C217.183 216.908 218.163 218.653 219.467 220.279C220.642 221.741 221.365 223.567 222.299 225.228C222.922 226.338 221.862 226.556 221.327 226.835C216.242 229.51 211.104 232.036 205.671 233.988C198.719 236.487 191.836 239.204 184.693 241.114C181.261 242.033 177.902 243.196 174.451 244.038C173.731 244.214 172.974 244.245 173.15 243.119C173.888 238.412 174.519 233.682 175.943 229.116C176.05 228.779 176.593 228.576 176.934 228.312C177.561 228.431 178.17 228.397 178.797 228.244C185.558 226.59 192.253 224.738 198.761 222.227C204.668 219.946 210.541 217.585 216.342 215.04H216.345Z" fill="#DBDCD6"/>
<path d="M144.023 71.5818C145.086 69.3659 145.568 66.9893 145.993 64.5935C146.341 64.7313 146.716 64.827 147.034 65.0145C150.301 66.9549 153.427 64.1381 153.044 61.1185C152.964 60.4947 153.037 59.8556 153.04 59.2203C153.381 58.8835 153.216 58.6616 152.876 58.4779C152.566 58.2061 152.574 57.8043 152.44 57.4599C150.798 53.2233 149.157 48.979 145.614 45.86C145.358 45.4734 145.105 45.0869 144.849 44.7004C144.715 40.9689 143.043 37.7657 141.367 34.5701C140.992 33.8582 140.503 33.2114 140.304 32.0557C143.15 33.6286 145.442 35.4618 147.604 37.4442C149.287 38.9865 150.821 40.6934 152.405 42.3467C152.631 42.584 152.78 42.6299 152.983 42.3697C154.36 44.5396 154.322 47.2186 155.531 49.4498C156.664 51.5432 156.756 53.7935 156.74 56.1127C156.679 64.4634 156.572 72.8179 156.733 81.1648C156.878 88.5894 156.017 95.9795 156.235 103.4C156.247 103.852 156.492 104.541 155.765 104.659C155.172 104.755 155.21 104.07 154.969 103.737C151.338 98.7273 146.881 94.617 141.647 91.3296C139.772 90.1508 139.787 90.124 141.471 88.819C146.406 84.9919 147.761 78.7805 144.868 73.2772C144.574 72.7184 144.302 72.1444 144.023 71.578V71.5818Z" fill="#364140"/>
<path d="M55.1898 64.5361C56.3376 66.3617 55.8096 68.5507 56.4639 70.4834C56.6437 71.0116 56.77 71.5588 56.923 72.0985C56.6437 72.8065 56.3797 73.5221 56.0813 74.2225C53.7474 79.7526 55.3505 85.4856 60.2287 89.0754C60.814 89.504 62.0269 89.814 60.5654 90.7402C54.8799 94.3453 49.8219 98.6355 46.038 104.288C45.9538 104.414 45.7434 104.456 45.3532 104.667C45.5445 101.46 45.0739 98.4632 44.9935 95.4399C44.6683 83.197 44.6951 70.9542 44.5114 58.7113C44.4387 53.8662 45.4641 49.4077 47.1667 44.9912C47.5914 43.8928 48.0122 42.7906 48.4331 41.6884C49.5082 41.8913 50.0324 41.0799 50.6292 40.4523C53.6403 37.2873 56.988 34.5356 60.9097 32.0289C60.7184 33.6898 59.804 34.7499 59.2722 35.9631C58.0364 38.7798 56.5978 41.5353 56.4639 44.708C56.33 44.9568 56.1999 45.2017 56.066 45.4505C53.3916 48.072 51.0922 51.0303 49.7531 54.5092C48.6435 57.3948 47.4881 60.4144 48.7851 63.6789C49.3552 65.114 50.1586 65.7723 51.7082 65.8029C53.0779 65.8297 53.977 64.8002 55.186 64.5323L55.1898 64.5361Z" fill="#364140"/>
<path d="M257.93 137.687C259.177 135.586 260.589 133.688 260.864 131.009C261.392 125.865 259.468 121.923 255.684 118.846C251.273 115.256 246.222 114.212 240.487 115.004C237.017 115.482 233.795 116.596 230.329 117.557C234.442 112.003 242.867 106.535 253.725 107.886C263.321 109.08 273.238 116.171 275.667 126.998C275.181 126.998 274.879 127.274 274.573 127.633C270.143 132.83 264.786 136.501 257.93 137.683V137.687Z" fill="#4B545B"/>
<path d="M73.2685 203.544C74.2173 203.589 74.4316 204.443 74.8218 205.044C80.7292 214.037 88.9742 220.077 98.7765 224.221C102.354 225.733 106.042 226.805 109.788 227.754C110.61 227.964 111.402 228.022 112.229 227.991C112.255 228.125 112.278 228.259 112.305 228.393C111.414 230.169 110.522 231.944 109.627 233.724C109.214 233.835 108.816 233.957 108.954 234.531C108.403 235.393 107.856 236.25 107.305 237.111C106.792 237.149 106.513 237.406 106.536 237.941C105.346 239.086 104.286 240.383 102.755 241.125C102.488 241.015 102.392 241.194 102.312 241.393C102.193 241.569 102.078 241.745 101.96 241.922C99.4881 241.191 97.6554 239.415 95.7003 237.911C93.6075 236.3 91.771 234.352 89.8657 232.507C89.2038 231.864 88.7179 231.033 88.0713 230.371C86.9656 229.235 85.7183 228.404 84.0195 229.124C81.8349 226.265 80.3236 223.02 78.5751 219.904C77.8405 218.595 77.7487 216.762 76.0347 216.081C75.8969 213.835 74.6076 211.91 74.2594 209.72C73.9304 207.661 73.5975 205.602 73.2646 203.544H73.2685Z" fill="#DBDCD6"/>
<path d="M101.967 241.922C102.085 241.746 102.2 241.569 102.319 241.393C102.468 241.305 102.617 241.214 102.763 241.126C104.293 240.383 105.353 239.086 106.543 237.941C107.086 237.934 107.365 237.677 107.312 237.111C107.863 236.25 108.41 235.393 108.961 234.531C109.447 234.482 109.684 234.221 109.634 233.724C110.526 231.948 111.417 230.172 112.312 228.393C115.572 228.554 118.702 229.828 122.015 229.552C123.366 235.875 124.724 242.193 126.048 248.519C126.243 249.457 126.289 250.265 124.781 250.104C117.007 249.277 109.883 246.537 103.057 242.882C102.633 242.656 102.051 242.561 101.971 241.925L101.967 241.922Z" fill="#364140"/>
<path d="M76.0382 216.077C77.7522 216.758 77.844 218.592 78.5786 219.901C80.3271 223.016 81.8384 226.261 84.023 229.12C82.8638 230.758 83.3344 232.029 84.6046 233.487C88.8438 238.351 93.588 242.58 99.0631 246.009C100.043 246.621 101.336 246.767 102.005 247.869C100.146 248.018 98.7493 249.3 97.0735 249.909C93.8138 251.091 90.5234 251.803 87.057 251.057C86.8237 251.019 86.5941 250.984 86.3607 250.946C86.3072 250.709 86.2039 250.544 85.9207 250.651C84.9068 250.364 83.8891 250.081 82.8752 249.794C82.4888 249.323 81.9914 249.109 81.3869 249.124C80.9737 247.44 80.4381 245.573 80.4687 244.049C80.5146 241.803 80.1014 239.702 79.8106 237.559C78.9536 231.225 77.6183 224.979 76.13 218.768C75.9157 217.876 75.2806 217.003 76.0382 216.081V216.077Z" fill="#364140"/>
<path d="M257.93 137.687C264.787 136.504 270.143 132.83 274.574 127.637C274.88 127.277 275.182 127.002 275.668 127.002C277.642 132.586 277.068 138.093 275.037 143.508C274.069 146.095 273.104 148.713 270.916 150.642C269.959 151.484 269.401 151.87 268.226 150.722C263.834 146.432 258.592 143.42 252.333 141.143C254.671 140.178 256.22 138.82 257.93 137.691V137.687Z" fill="#364140"/>
<path d="M167.801 249.044C166.864 249.243 166.42 250.043 165.877 250.689C162.598 254.593 158.733 257.869 154.785 261.053C154.475 261.306 154.116 261.409 153.718 261.363C152.493 259.798 153.48 258.11 153.725 256.629C155.191 247.723 158.221 239.449 164.951 233.07C166.634 231.474 168.195 229.422 170.839 229.158C170.755 232.013 169.661 234.677 169.27 237.482C168.777 241.038 167.973 244.555 168.111 248.179C168.123 248.466 167.908 248.757 167.801 249.048V249.044Z" fill="#364140"/>
<path d="M216.345 215.04C210.545 217.585 204.672 219.946 198.765 222.227C192.257 224.738 185.561 226.59 178.801 228.244C178.173 228.397 177.561 228.431 176.938 228.312C177.531 226.464 176.907 224.267 178.537 222.717C178.464 223.942 179.141 223.858 180.014 223.628C186.33 221.959 192.517 219.889 198.677 217.727C203.831 215.92 208.755 213.574 213.721 211.328C213.996 211.202 214.222 210.96 214.474 210.777C215.733 211.921 215.756 213.605 216.345 215.044V215.04Z" fill="#364140"/>
<path d="M70.0696 77.2574C68.1374 77.2497 67.2154 76.3504 67.1847 74.4407C67.1656 73.4035 68.7113 71.5818 69.6449 71.5397C71.9979 71.4364 73.6698 72.5807 73.6851 74.3412C73.7004 76.2738 72.3001 77.4105 70.0696 77.2536V77.2574Z" fill="white"/>
<path d="M130.738 71.8995C133.187 71.8995 133.722 72.3779 133.73 74.5784C133.734 76.4461 132.555 77.7128 130.784 77.6286C128.641 77.5253 127.895 76.3236 127.666 74.2417C127.501 72.7185 128.672 71.8995 130.738 71.8995Z" fill="white"/>
<path d="M116.199 271.264C116.238 269.721 115.725 268.145 116.49 266.648C116.995 268.225 117.435 269.794 116.199 271.264Z" fill="#364140"/>
<path d="M81.387 249.12C81.9915 249.105 82.4889 249.319 82.8753 249.79C82.0336 250.173 82.3129 251.256 81.6548 251.753C80.9546 250.938 81.5018 249.997 81.387 249.12Z" fill="#DBDCD6"/>
<path d="M81.6474 257.838C82.2443 258.569 82.5006 259.262 81.4064 259.783C81.4217 259.124 81.0276 258.42 81.6474 257.838Z" fill="#DBDCD6"/>
<path d="M102.679 156.754C103.165 156.042 103.67 155.682 104.255 156.662C103.75 157.025 103.218 156.949 102.679 156.754Z" fill="#4B545B"/>
<path d="M60.0875 16.7626C60.8068 17.0803 60.8795 17.4783 60.2368 17.9643C59.8159 17.6084 59.9307 17.1874 60.0875 16.7626Z" fill="#364140"/>
<path d="M179.229 221.454C179.286 221.948 179.057 222.22 178.579 222.296C178.445 221.745 178.781 221.558 179.229 221.454Z" fill="#364140"/>
<path d="M132.667 259.404C132.965 259.629 132.981 259.932 132.896 260.257C132.544 260.047 132.066 259.871 132.667 259.404Z" fill="#364140"/>
<path d="M141.076 17.6429C141.137 17.4898 141.199 17.3405 141.256 17.1874C141.195 17.3405 141.137 17.4898 141.076 17.6429Z" fill="#364140"/>
<path d="M66.048 93.025L65.6348 93.312C65.6654 93.0632 65.7687 92.9216 66.048 93.025Z" fill="#DBDCD6"/>
<path d="M66.8093 92.6269C66.6639 92.7264 66.5223 92.826 66.377 92.9255C66.419 92.6767 66.53 92.5313 66.8093 92.6269Z" fill="#DBDCD6"/>
<path d="M144.853 44.7003C145.109 45.0869 145.362 45.4734 145.618 45.8599C145.622 47.7582 146.158 49.6105 146.012 51.5279C145.825 53.9734 143.518 56.2505 141.341 55.6917C137.729 54.7656 134.194 55.0143 130.658 55.8525C127.976 56.4878 125.248 57.0733 123.037 58.9065C118.97 58.0262 117.191 53.5065 120.137 49.6449C124.284 44.2066 129.702 40.8618 136.933 41.2215C140.082 41.3784 142.469 42.9705 144.861 44.6965L144.853 44.7003Z" fill="white"/>
<path d="M56.07 45.4619C56.2039 45.2132 56.334 44.9682 56.4679 44.7195C58.3273 43.602 59.7161 41.6272 62.1724 41.6042C62.513 41.6387 62.8305 41.6081 63.0065 41.2521C63.4044 41.1947 63.8023 41.1411 64.1964 41.0837C64.9884 41.4588 65.7804 41.3402 66.5762 41.1029C67.0429 41.1679 67.5097 41.233 67.9765 41.2981C68.1066 41.5966 68.3323 41.7229 68.6575 41.6731C74.5266 43.0432 79.443 45.7145 81.884 51.6082C83.3073 55.0411 81.3369 58.5391 77.8935 58.8912C77.905 58.1258 77.2584 57.9688 76.761 57.7775C71.6877 55.8027 66.5379 54.3561 60.9979 55.4544C57.6692 56.1127 55.255 54.1188 55.366 50.7242C55.4234 48.9675 55.8251 47.2186 56.07 45.4658V45.4619Z" fill="white"/>
<path d="M56.0704 45.4619C55.8255 47.2147 55.4238 48.9599 55.3664 50.7203C55.2554 54.115 57.6696 56.1089 60.9983 55.4506C66.5383 54.3522 71.6881 55.8027 76.7614 57.7737C77.2588 57.9688 77.9054 58.1219 77.8939 58.8873C75.8125 60.024 73.6776 59.0596 71.6843 58.7534C67.5407 58.1143 63.7721 58.497 60.3096 60.9693C58.6185 62.1786 56.8968 63.3459 55.1866 64.5323C53.9737 64.8002 53.0784 65.8297 51.7087 65.8029C50.1592 65.7761 49.3557 65.114 48.7856 63.6788C47.4886 60.4182 48.6441 57.3986 49.7536 54.5091C51.0889 51.0342 53.3922 48.0758 56.0665 45.4504L56.0704 45.4619Z" fill="#DBDCD6"/>
<path d="M123.029 58.9103C125.241 57.0771 127.969 56.4916 130.651 55.8563C134.186 55.0182 137.725 54.7694 141.333 55.6956C143.51 56.2543 145.817 53.9772 146.004 51.5317C146.154 49.6105 145.618 47.7582 145.61 45.8638C149.149 48.9828 150.795 53.2271 152.436 57.4637C152.57 57.8119 152.562 58.2099 152.872 58.4817C152.704 58.7802 152.773 59.0251 153.037 59.2241C153.037 59.8556 152.964 60.4985 153.04 61.1224C153.423 64.1419 150.293 66.9587 147.03 65.0183C146.712 64.8308 146.337 64.7351 145.989 64.5974C142.913 62.4618 140.204 59.6987 136.363 58.8682C133.176 58.1793 130.004 58.3783 126.828 59.0825C125.581 59.3581 124.261 59.6375 123.025 58.9141L123.029 58.9103Z" fill="#DBDCD6"/>
<path d="M66.58 41.1029C65.7842 41.3402 64.9884 41.4588 64.2002 41.0837C64.996 40.6245 65.7918 40.6857 66.58 41.1029Z" fill="#B1E1E9"/>
<path d="M63.0069 41.2521C62.8309 41.6081 62.5172 41.6387 62.1729 41.6042C62.3106 41.1565 62.5975 41.057 63.0069 41.2521Z" fill="#B1E1E9"/>
<path d="M68.6615 41.6731C68.3401 41.7229 68.1144 41.5966 67.9805 41.2981C68.4855 40.9192 68.4281 41.5583 68.6615 41.6731Z" fill="#B1E1E9"/>
<path d="M127.701 111.804C126.553 111.529 125.087 111.047 124.353 112.872C123.829 114.185 123.086 115.406 121.858 116.313C118.549 118.774 114.811 119.485 110.805 119.279C107.943 119.325 105.605 117.943 103.099 116.615C109.091 114.128 113.606 110.385 116.169 104.514C116.735 103.216 116.36 101.885 116.59 100.587C116.181 98.2528 114.872 96.5306 112.714 95.6924C108.479 94.0506 104.01 93.7291 99.503 93.687C97.7354 93.6717 96.0098 93.997 94.2613 94.0659C91.7936 94.1616 89.6242 95.1337 87.4778 96.1593C84.9948 97.3419 84.8876 99.8372 84.44 102.114C85.9436 108.483 90.2861 112.524 95.6081 115.765C95.9257 115.957 96.27 116.11 96.6143 116.248C96.8783 116.355 97.2686 116.175 97.4408 116.787C95.2523 118.268 92.8878 119.21 90.1293 118.915C89.8576 119.061 89.6013 119.313 89.3181 119.34C84.7537 119.757 78.9076 117.867 76.8071 113.021C76.0113 111.188 74.4924 111.383 73.3063 111.839C72.0055 112.336 71.8065 113.672 72.5488 114.996C73.6354 116.937 74.6454 118.95 76.5929 120.193C77.4422 120.733 77.7789 121.372 77.9358 122.383C78.2648 124.461 78.5288 126.55 79.0071 128.613C80.5107 135.142 84.1722 140.171 89.7581 143.611C96.2203 147.592 103.023 147.611 109.829 144.235C118.572 139.899 121.981 132.222 122.991 123.098C123.125 121.893 123.259 121.062 124.391 120.304C126.461 118.915 127.942 116.906 128.711 114.514C129.047 113.477 128.994 112.114 127.701 111.804ZM112.312 136.88C108.284 140.703 103.474 142.574 98.03 141.771C94.4488 141.239 91.2885 139.348 88.7825 136.531C88.1053 135.77 88.6754 135.59 88.9968 135.226C91.0705 132.865 93.7601 131.552 96.7253 130.714C96.9893 130.182 97.3566 130.037 97.8654 130.4C99.7172 130.079 101.573 130.129 103.428 130.351C104.029 129.975 104.144 130.324 104.155 130.833C107.247 131.502 109.91 132.964 112.232 135.096C112.905 135.712 113.104 136.129 112.312 136.88Z" fill="black"/>
<path d="M110.809 119.279C107.943 119.325 105.609 117.943 103.1 116.615C109.091 114.128 113.61 110.388 116.173 104.514C116.739 103.216 116.364 101.885 116.59 100.587C117.386 100.744 117.244 101.383 117.298 101.938C117.902 108.199 116.07 113.58 111.551 118.004C111.188 118.36 110.794 118.701 110.805 119.279H110.809Z" fill="#DBDCD6"/>
<path d="M84.4396 102.118C85.9432 108.486 90.2857 112.528 95.6077 115.766C95.9252 115.957 96.2696 116.11 96.6177 116.248C96.8817 116.355 97.272 116.175 97.4442 116.787C95.2557 118.268 92.8912 119.21 90.1327 118.915C89.2106 116.512 87.0183 114.981 85.9087 112.677C84.275 109.286 83.3185 105.861 84.4434 102.114L84.4396 102.118Z" fill="#DBDCD6"/>
<path d="M85.9209 250.647C86.204 250.54 86.3073 250.705 86.3609 250.942C86.2155 250.842 86.0663 250.747 85.9209 250.647Z" fill="#DBDCD6"/>
<path d="M153.044 59.2241C152.776 59.0251 152.711 58.7802 152.88 58.4817C153.224 58.6654 153.389 58.8874 153.044 59.2241Z" fill="#4B545B"/>
<path d="M107.308 237.107C107.366 237.673 107.087 237.926 106.539 237.938C106.516 237.402 106.792 237.145 107.308 237.107Z" fill="#4B545B"/>
<path d="M109.631 233.72C109.68 234.218 109.443 234.478 108.957 234.528C108.82 233.954 109.221 233.835 109.631 233.72Z" fill="#4B545B"/>
<path d="M102.762 241.122C102.613 241.21 102.464 241.302 102.318 241.39C102.399 241.191 102.494 241.011 102.762 241.122Z" fill="#4B545B"/>
<path d="M104.16 130.837C107.247 131.506 109.914 132.964 112.236 135.1C112.906 135.716 113.105 136.129 112.313 136.88C108.284 140.703 103.475 142.574 98.0303 141.771C94.4491 141.242 91.2888 139.352 88.7828 136.531C88.1056 135.77 88.6757 135.594 88.9971 135.226C91.0708 132.865 93.7604 131.552 96.7218 130.718C97.1924 130.936 97.6209 131.005 97.8619 130.4C99.7137 130.083 101.569 130.129 103.425 130.351C103.498 130.768 103.72 130.959 104.152 130.833L104.16 130.837Z" fill="#DBDCD6"/>
<path d="M97.8657 130.4C97.6247 131.005 97.1924 130.932 96.7256 130.718C96.9896 130.186 97.3569 130.037 97.8657 130.4Z" fill="#4B545B"/>
<path d="M104.16 130.837C103.727 130.959 103.505 130.768 103.433 130.354C104.033 129.979 104.152 130.328 104.16 130.837Z" fill="#4B545B"/>
</g>
<defs>
<clipPath id="clip0_53_8457">
<rect width="325" height="308" fill="white"/>
</clipPath>
</defs>
</svg>
